G04 #@! TF.FileFunction,Soldermask,Bot*
%FSLAX46Y46*%
G04 Gerber Fmt 4.6, Leading zero omitted, Abs format (unit mm)*
G04 Created by KiCad (PCBNEW 4.0.2-4+6225~38~ubuntu14.04.1-stable) date Sat 05 Mar 2016 20:24:40 CET*
%MOMM*%
G01*
G04 APERTURE LIST*
%ADD10C,0.100000*%
%ADD11C,1.924000*%
%ADD12R,2.127200X2.127200*%
%ADD13O,2.127200X2.127200*%
%ADD14C,1.797000*%
%ADD15R,1.700000X1.700000*%
%ADD16C,1.700000*%
%ADD17R,2.400000X2.400000*%
%ADD18C,2.400000*%
%ADD19C,2.398980*%
%ADD20R,1.800000X1.800000*%
%ADD21C,1.800000*%
G04 APERTURE END LIST*
D10*
D11*
X149501000Y-107188000D03*
X129501000Y-107188000D03*
D12*
X170688000Y-99568000D03*
D13*
X170688000Y-102108000D03*
X173228000Y-99568000D03*
X173228000Y-102108000D03*
X175768000Y-99568000D03*
X175768000Y-102108000D03*
D14*
X150322000Y-104810000D03*
X145842000Y-104810000D03*
X150322000Y-98390000D03*
X145842000Y-98390000D03*
X136860000Y-115224000D03*
X132380000Y-115224000D03*
X136860000Y-108804000D03*
X132380000Y-108804000D03*
D15*
X139573000Y-107188000D03*
D16*
X142073000Y-107188000D03*
D17*
X147574000Y-112014000D03*
D18*
X145034000Y-112014000D03*
D19*
X134874000Y-101092000D03*
X142494000Y-101092000D03*
X134874000Y-97409000D03*
X142494000Y-97409000D03*
X150114000Y-116205000D03*
X142494000Y-116205000D03*
D20*
X155956000Y-115062000D03*
D21*
X160956000Y-115062000D03*
D20*
X157988000Y-98933000D03*
D21*
X152988000Y-98933000D03*
D20*
X165608000Y-98933000D03*
D21*
X160608000Y-98933000D03*
D12*
X184150000Y-100711000D03*
D13*
X181610000Y-100711000D03*
X184150000Y-103251000D03*
X181610000Y-103251000D03*
X184150000Y-105791000D03*
X181610000Y-105791000D03*
X184150000Y-108331000D03*
X181610000Y-108331000D03*
M02*
