G04 #@! TF.FileFunction,Copper,L2,Bot,Signal*
%FSLAX46Y46*%
G04 Gerber Fmt 4.6, Leading zero omitted, Abs format (unit mm)*
G04 Created by KiCad (PCBNEW 4.0.2-4+6225~38~ubuntu14.04.1-stable) date Sat 05 Mar 2016 20:24:40 CET*
%MOMM*%
G01*
G04 APERTURE LIST*
%ADD10C,0.100000*%
%ADD11C,1.524000*%
%ADD12R,1.727200X1.727200*%
%ADD13O,1.727200X1.727200*%
%ADD14C,1.397000*%
%ADD15R,1.300000X1.300000*%
%ADD16C,1.300000*%
%ADD17R,2.000000X2.000000*%
%ADD18C,2.000000*%
%ADD19C,1.998980*%
%ADD20R,1.400000X1.400000*%
%ADD21C,1.400000*%
%ADD22C,0.600000*%
%ADD23C,0.250000*%
%ADD24C,0.254000*%
G04 APERTURE END LIST*
D10*
D11*
X149501000Y-107188000D03*
X129501000Y-107188000D03*
D12*
X170688000Y-99568000D03*
D13*
X170688000Y-102108000D03*
X173228000Y-99568000D03*
X173228000Y-102108000D03*
X175768000Y-99568000D03*
X175768000Y-102108000D03*
D14*
X150322000Y-104810000D03*
X145842000Y-104810000D03*
X150322000Y-98390000D03*
X145842000Y-98390000D03*
X136860000Y-115224000D03*
X132380000Y-115224000D03*
X136860000Y-108804000D03*
X132380000Y-108804000D03*
D15*
X139573000Y-107188000D03*
D16*
X142073000Y-107188000D03*
D17*
X147574000Y-112014000D03*
D18*
X145034000Y-112014000D03*
D19*
X134874000Y-101092000D03*
X142494000Y-101092000D03*
X134874000Y-97409000D03*
X142494000Y-97409000D03*
X150114000Y-116205000D03*
X142494000Y-116205000D03*
D20*
X155956000Y-115062000D03*
D21*
X160956000Y-115062000D03*
D20*
X157988000Y-98933000D03*
D21*
X152988000Y-98933000D03*
D20*
X165608000Y-98933000D03*
D21*
X160608000Y-98933000D03*
D12*
X184150000Y-100711000D03*
D13*
X181610000Y-100711000D03*
X184150000Y-103251000D03*
X181610000Y-103251000D03*
X184150000Y-105791000D03*
X181610000Y-105791000D03*
X184150000Y-108331000D03*
X181610000Y-108331000D03*
D22*
X157734000Y-107061000D03*
X158750000Y-101092000D03*
X178181000Y-104013000D03*
X173488000Y-104388000D03*
X165803000Y-102938000D03*
X162941000Y-97155000D03*
X150114000Y-109728000D03*
X148844000Y-96266000D03*
X152654000Y-109982000D03*
D23*
X163449000Y-101092000D02*
X158750000Y-101092000D01*
X165608000Y-98933000D02*
X163449000Y-101092000D01*
X178181000Y-104013000D02*
X178181000Y-98552000D01*
X173228000Y-98171000D02*
X173228000Y-99568000D01*
X174117000Y-97282000D02*
X173228000Y-98171000D01*
X176911000Y-97282000D02*
X174117000Y-97282000D01*
X178181000Y-98552000D02*
X176911000Y-97282000D01*
X180721000Y-104902000D02*
X181610000Y-105791000D01*
X179070000Y-104902000D02*
X180721000Y-104902000D01*
X178181000Y-104013000D02*
X179070000Y-104902000D01*
X184150000Y-108331000D02*
X181737000Y-110744000D01*
X179832000Y-110744000D02*
X181737000Y-110744000D01*
X173482000Y-104394000D02*
X179832000Y-110744000D01*
X173482000Y-104394000D02*
X173488000Y-104388000D01*
X185928000Y-107569000D02*
X184150000Y-105791000D01*
X185928000Y-110871000D02*
X185928000Y-107569000D01*
X184531000Y-112268000D02*
X185928000Y-110871000D01*
X172593000Y-112268000D02*
X184531000Y-112268000D01*
X165862000Y-105537000D02*
X172593000Y-112268000D01*
X165862000Y-102997000D02*
X165862000Y-105537000D01*
X165803000Y-102938000D02*
X165862000Y-102997000D01*
X169545000Y-102108000D02*
X170688000Y-102108000D01*
X168656000Y-101219000D02*
X169545000Y-102108000D01*
X168656000Y-97536000D02*
X168656000Y-101219000D01*
X168148000Y-97028000D02*
X168656000Y-97536000D01*
X163068000Y-97028000D02*
X168148000Y-97028000D01*
X162941000Y-97155000D02*
X163068000Y-97028000D01*
X136860000Y-115224000D02*
X136860000Y-108804000D01*
X142494000Y-101092000D02*
X140081000Y-101092000D01*
X136860000Y-104313000D02*
X136860000Y-108804000D01*
X140081000Y-101092000D02*
X136860000Y-104313000D01*
X150114000Y-109728000D02*
X150114000Y-116205000D01*
X150322000Y-104810000D02*
X150322000Y-98390000D01*
X142494000Y-97409000D02*
X143764000Y-96139000D01*
X148717000Y-96139000D02*
X148844000Y-96266000D01*
X143764000Y-96139000D02*
X148717000Y-96139000D01*
X151546000Y-104810000D02*
X150322000Y-104810000D01*
X152146000Y-105410000D02*
X151546000Y-104810000D01*
X152146000Y-109474000D02*
X152146000Y-105410000D01*
X152654000Y-109982000D02*
X152146000Y-109474000D01*
D24*
G36*
X133901443Y-96256837D02*
X134874000Y-97229395D01*
X135846557Y-96256837D01*
X135830726Y-96214000D01*
X141377549Y-96214000D01*
X141109154Y-96481927D01*
X140859794Y-97082453D01*
X140859226Y-97732694D01*
X141107538Y-98333655D01*
X141566927Y-98793846D01*
X142167453Y-99043206D01*
X142817694Y-99043774D01*
X143418655Y-98795462D01*
X143560277Y-98654086D01*
X144508269Y-98654086D01*
X144710854Y-99144380D01*
X145085647Y-99519827D01*
X145575587Y-99723268D01*
X146106086Y-99723731D01*
X146596380Y-99521146D01*
X146971827Y-99146353D01*
X147175268Y-98656413D01*
X147175731Y-98125914D01*
X146973146Y-97635620D01*
X146598353Y-97260173D01*
X146108413Y-97056732D01*
X145577914Y-97056269D01*
X145087620Y-97258854D01*
X144712173Y-97633647D01*
X144508732Y-98123587D01*
X144508269Y-98654086D01*
X143560277Y-98654086D01*
X143878846Y-98336073D01*
X144128206Y-97735547D01*
X144128774Y-97085306D01*
X144059691Y-96918111D01*
X144078802Y-96899000D01*
X148154759Y-96899000D01*
X148313673Y-97058192D01*
X148657201Y-97200838D01*
X149029167Y-97201162D01*
X149372943Y-97059117D01*
X149636192Y-96796327D01*
X149778838Y-96452799D01*
X149779046Y-96214000D01*
X178013908Y-96214000D01*
X180091954Y-98292046D01*
X180322295Y-98445954D01*
X180594000Y-98500000D01*
X180871021Y-98500000D01*
X180883134Y-98512690D01*
X180924488Y-98541523D01*
X180973802Y-98551994D01*
X181023304Y-98542455D01*
X181065195Y-98514408D01*
X181074660Y-98500000D01*
X190552000Y-98500000D01*
X190552000Y-103938000D01*
X189992000Y-103938000D01*
X189923416Y-103951642D01*
X188978672Y-104125653D01*
X188828746Y-104187755D01*
X188766537Y-104213523D01*
X187320300Y-104267087D01*
X187271294Y-104278915D01*
X187230750Y-104308877D01*
X187205058Y-104352252D01*
X187198125Y-104399639D01*
X187257774Y-105741731D01*
X187183653Y-105920672D01*
X187009642Y-106795486D01*
X187009643Y-106934000D01*
X187009642Y-107072514D01*
X187183653Y-107947328D01*
X187249544Y-108106401D01*
X187289668Y-108203269D01*
X187372698Y-108327532D01*
X187452125Y-110114639D01*
X187464315Y-110163556D01*
X187494576Y-110203877D01*
X187538140Y-110229247D01*
X187579000Y-110236000D01*
X190500000Y-110236000D01*
X190500000Y-115368000D01*
X180594000Y-115368000D01*
X180322295Y-115422046D01*
X180091954Y-115575954D01*
X178013908Y-117654000D01*
X150887301Y-117654000D01*
X151038655Y-117591462D01*
X151498846Y-117132073D01*
X151748206Y-116531547D01*
X151748774Y-115881306D01*
X151500462Y-115280345D01*
X151041073Y-114820154D01*
X150874000Y-114750779D01*
X150874000Y-114362000D01*
X154608560Y-114362000D01*
X154608560Y-115762000D01*
X154652838Y-115997317D01*
X154791910Y-116213441D01*
X155004110Y-116358431D01*
X155256000Y-116409440D01*
X156656000Y-116409440D01*
X156891317Y-116365162D01*
X157107441Y-116226090D01*
X157252431Y-116013890D01*
X157255795Y-115997275D01*
X160200331Y-115997275D01*
X160262169Y-116233042D01*
X160763122Y-116409419D01*
X161293440Y-116380664D01*
X161649831Y-116233042D01*
X161711669Y-115997275D01*
X160956000Y-115241605D01*
X160200331Y-115997275D01*
X157255795Y-115997275D01*
X157303440Y-115762000D01*
X157303440Y-114869122D01*
X159608581Y-114869122D01*
X159637336Y-115399440D01*
X159784958Y-115755831D01*
X160020725Y-115817669D01*
X160776395Y-115062000D01*
X161135605Y-115062000D01*
X161891275Y-115817669D01*
X162127042Y-115755831D01*
X162303419Y-115254878D01*
X162274664Y-114724560D01*
X162127042Y-114368169D01*
X161891275Y-114306331D01*
X161135605Y-115062000D01*
X160776395Y-115062000D01*
X160020725Y-114306331D01*
X159784958Y-114368169D01*
X159608581Y-114869122D01*
X157303440Y-114869122D01*
X157303440Y-114362000D01*
X157259170Y-114126725D01*
X160200331Y-114126725D01*
X160956000Y-114882395D01*
X161711669Y-114126725D01*
X161649831Y-113890958D01*
X161148878Y-113714581D01*
X160618560Y-113743336D01*
X160262169Y-113890958D01*
X160200331Y-114126725D01*
X157259170Y-114126725D01*
X157259162Y-114126683D01*
X157120090Y-113910559D01*
X156907890Y-113765569D01*
X156656000Y-113714560D01*
X155256000Y-113714560D01*
X155020683Y-113758838D01*
X154804559Y-113897910D01*
X154659569Y-114110110D01*
X154608560Y-114362000D01*
X150874000Y-114362000D01*
X150874000Y-110290463D01*
X150906192Y-110258327D01*
X151048838Y-109914799D01*
X151049162Y-109542833D01*
X150907117Y-109199057D01*
X150644327Y-108935808D01*
X150300799Y-108793162D01*
X149928833Y-108792838D01*
X149585057Y-108934883D01*
X149321808Y-109197673D01*
X149179162Y-109541201D01*
X149178838Y-109913167D01*
X149320883Y-110256943D01*
X149354000Y-110290118D01*
X149354000Y-114750504D01*
X149189345Y-114818538D01*
X148729154Y-115277927D01*
X148479794Y-115878453D01*
X148479226Y-116528694D01*
X148727538Y-117129655D01*
X149186927Y-117589846D01*
X149341427Y-117654000D01*
X143267301Y-117654000D01*
X143418655Y-117591462D01*
X143878846Y-117132073D01*
X144128206Y-116531547D01*
X144128774Y-115881306D01*
X143880462Y-115280345D01*
X143421073Y-114820154D01*
X142820547Y-114570794D01*
X142170306Y-114570226D01*
X141569345Y-114818538D01*
X141109154Y-115277927D01*
X140859794Y-115878453D01*
X140859226Y-116528694D01*
X141107538Y-117129655D01*
X141566927Y-117589846D01*
X141721427Y-117654000D01*
X128472000Y-117654000D01*
X128472000Y-116158188D01*
X131625417Y-116158188D01*
X131687071Y-116393800D01*
X132187480Y-116569927D01*
X132717199Y-116541148D01*
X133072929Y-116393800D01*
X133134583Y-116158188D01*
X132380000Y-115403605D01*
X131625417Y-116158188D01*
X128472000Y-116158188D01*
X128472000Y-115031480D01*
X131034073Y-115031480D01*
X131062852Y-115561199D01*
X131210200Y-115916929D01*
X131445812Y-115978583D01*
X132200395Y-115224000D01*
X132559605Y-115224000D01*
X133314188Y-115978583D01*
X133549800Y-115916929D01*
X133725927Y-115416520D01*
X133697148Y-114886801D01*
X133549800Y-114531071D01*
X133314188Y-114469417D01*
X132559605Y-115224000D01*
X132200395Y-115224000D01*
X131445812Y-114469417D01*
X131210200Y-114531071D01*
X131034073Y-115031480D01*
X128472000Y-115031480D01*
X128472000Y-114289812D01*
X131625417Y-114289812D01*
X132380000Y-115044395D01*
X133134583Y-114289812D01*
X133072929Y-114054200D01*
X132572520Y-113878073D01*
X132042801Y-113906852D01*
X131687071Y-114054200D01*
X131625417Y-114289812D01*
X128472000Y-114289812D01*
X128472000Y-109738188D01*
X131625417Y-109738188D01*
X131687071Y-109973800D01*
X132187480Y-110149927D01*
X132717199Y-110121148D01*
X133072929Y-109973800D01*
X133134583Y-109738188D01*
X132380000Y-108983605D01*
X131625417Y-109738188D01*
X128472000Y-109738188D01*
X128472000Y-108611480D01*
X131034073Y-108611480D01*
X131062852Y-109141199D01*
X131210200Y-109496929D01*
X131445812Y-109558583D01*
X132200395Y-108804000D01*
X132559605Y-108804000D01*
X133314188Y-109558583D01*
X133549800Y-109496929D01*
X133700738Y-109068086D01*
X135526269Y-109068086D01*
X135728854Y-109558380D01*
X136100000Y-109930174D01*
X136100000Y-114098464D01*
X135730173Y-114467647D01*
X135526732Y-114957587D01*
X135526269Y-115488086D01*
X135728854Y-115978380D01*
X136103647Y-116353827D01*
X136593587Y-116557268D01*
X137124086Y-116557731D01*
X137614380Y-116355146D01*
X137989827Y-115980353D01*
X138193268Y-115490413D01*
X138193731Y-114959914D01*
X137991146Y-114469620D01*
X137620000Y-114097826D01*
X137620000Y-112337795D01*
X143398716Y-112337795D01*
X143647106Y-112938943D01*
X144106637Y-113399278D01*
X144707352Y-113648716D01*
X145357795Y-113649284D01*
X145958943Y-113400894D01*
X146021197Y-113338749D01*
X146035673Y-113373698D01*
X146214301Y-113552327D01*
X146447690Y-113649000D01*
X147288250Y-113649000D01*
X147447000Y-113490250D01*
X147447000Y-112141000D01*
X147701000Y-112141000D01*
X147701000Y-113490250D01*
X147859750Y-113649000D01*
X148700310Y-113649000D01*
X148933699Y-113552327D01*
X149112327Y-113373698D01*
X149209000Y-113140309D01*
X149209000Y-112299750D01*
X149050250Y-112141000D01*
X147701000Y-112141000D01*
X147447000Y-112141000D01*
X147427000Y-112141000D01*
X147427000Y-111887000D01*
X147447000Y-111887000D01*
X147447000Y-110537750D01*
X147701000Y-110537750D01*
X147701000Y-111887000D01*
X149050250Y-111887000D01*
X149209000Y-111728250D01*
X149209000Y-110887691D01*
X149112327Y-110654302D01*
X148933699Y-110475673D01*
X148700310Y-110379000D01*
X147859750Y-110379000D01*
X147701000Y-110537750D01*
X147447000Y-110537750D01*
X147288250Y-110379000D01*
X146447690Y-110379000D01*
X146214301Y-110475673D01*
X146035673Y-110654302D01*
X146021370Y-110688834D01*
X145961363Y-110628722D01*
X145360648Y-110379284D01*
X144710205Y-110378716D01*
X144109057Y-110627106D01*
X143648722Y-111086637D01*
X143399284Y-111687352D01*
X143398716Y-112337795D01*
X137620000Y-112337795D01*
X137620000Y-109929536D01*
X137989827Y-109560353D01*
X138193268Y-109070413D01*
X138193731Y-108539914D01*
X137991146Y-108049620D01*
X137620000Y-107677826D01*
X137620000Y-106538000D01*
X138275560Y-106538000D01*
X138275560Y-107838000D01*
X138319838Y-108073317D01*
X138458910Y-108289441D01*
X138671110Y-108434431D01*
X138923000Y-108485440D01*
X140223000Y-108485440D01*
X140458317Y-108441162D01*
X140674441Y-108302090D01*
X140819431Y-108089890D01*
X140820012Y-108087016D01*
X141353590Y-108087016D01*
X141409271Y-108317611D01*
X141892078Y-108485622D01*
X142402428Y-108456083D01*
X142736729Y-108317611D01*
X142772803Y-108168213D01*
X148700392Y-108168213D01*
X148769857Y-108410397D01*
X149293302Y-108597144D01*
X149848368Y-108569362D01*
X150232143Y-108410397D01*
X150301608Y-108168213D01*
X149501000Y-107367605D01*
X148700392Y-108168213D01*
X142772803Y-108168213D01*
X142792410Y-108087016D01*
X142073000Y-107367605D01*
X141353590Y-108087016D01*
X140820012Y-108087016D01*
X140870440Y-107838000D01*
X140870440Y-107675615D01*
X140943389Y-107851729D01*
X141173984Y-107907410D01*
X141893395Y-107188000D01*
X142252605Y-107188000D01*
X142972016Y-107907410D01*
X143202611Y-107851729D01*
X143370622Y-107368922D01*
X143348129Y-106980302D01*
X148091856Y-106980302D01*
X148119638Y-107535368D01*
X148278603Y-107919143D01*
X148520787Y-107988608D01*
X149321395Y-107188000D01*
X149680605Y-107188000D01*
X150481213Y-107988608D01*
X150723397Y-107919143D01*
X150910144Y-107395698D01*
X150882362Y-106840632D01*
X150723397Y-106456857D01*
X150481213Y-106387392D01*
X149680605Y-107188000D01*
X149321395Y-107188000D01*
X148520787Y-106387392D01*
X148278603Y-106456857D01*
X148091856Y-106980302D01*
X143348129Y-106980302D01*
X143341083Y-106858572D01*
X143202611Y-106524271D01*
X142972016Y-106468590D01*
X142252605Y-107188000D01*
X141893395Y-107188000D01*
X141173984Y-106468590D01*
X140943389Y-106524271D01*
X140870440Y-106733902D01*
X140870440Y-106538000D01*
X140826162Y-106302683D01*
X140817347Y-106288984D01*
X141353590Y-106288984D01*
X142073000Y-107008395D01*
X142792410Y-106288984D01*
X142772804Y-106207787D01*
X148700392Y-106207787D01*
X149501000Y-107008395D01*
X150301608Y-106207787D01*
X150283159Y-106143467D01*
X150586086Y-106143731D01*
X151076380Y-105941146D01*
X151339591Y-105678393D01*
X151386000Y-105724802D01*
X151386000Y-109474000D01*
X151443852Y-109764839D01*
X151608599Y-110011401D01*
X151718878Y-110121680D01*
X151718838Y-110167167D01*
X151860883Y-110510943D01*
X152123673Y-110774192D01*
X152467201Y-110916838D01*
X152839167Y-110917162D01*
X153182943Y-110775117D01*
X153446192Y-110512327D01*
X153588838Y-110168799D01*
X153589162Y-109796833D01*
X153447117Y-109453057D01*
X153184327Y-109189808D01*
X152906000Y-109074236D01*
X152906000Y-105410000D01*
X152848148Y-105119161D01*
X152683401Y-104872599D01*
X152083401Y-104272599D01*
X151836839Y-104107852D01*
X151546000Y-104050000D01*
X151447536Y-104050000D01*
X151082000Y-103683826D01*
X151082000Y-99868275D01*
X152232331Y-99868275D01*
X152294169Y-100104042D01*
X152795122Y-100280419D01*
X153325440Y-100251664D01*
X153681831Y-100104042D01*
X153743669Y-99868275D01*
X152988000Y-99112605D01*
X152232331Y-99868275D01*
X151082000Y-99868275D01*
X151082000Y-99515536D01*
X151451827Y-99146353D01*
X151620508Y-98740122D01*
X151640581Y-98740122D01*
X151669336Y-99270440D01*
X151816958Y-99626831D01*
X152052725Y-99688669D01*
X152808395Y-98933000D01*
X153167605Y-98933000D01*
X153923275Y-99688669D01*
X154159042Y-99626831D01*
X154335419Y-99125878D01*
X154306664Y-98595560D01*
X154159042Y-98239169D01*
X154135522Y-98233000D01*
X156640560Y-98233000D01*
X156640560Y-99633000D01*
X156684838Y-99868317D01*
X156823910Y-100084441D01*
X157036110Y-100229431D01*
X157288000Y-100280440D01*
X158265693Y-100280440D01*
X158221057Y-100298883D01*
X157957808Y-100561673D01*
X157815162Y-100905201D01*
X157814838Y-101277167D01*
X157956883Y-101620943D01*
X158219673Y-101884192D01*
X158563201Y-102026838D01*
X158935167Y-102027162D01*
X159278943Y-101885117D01*
X159312118Y-101852000D01*
X163449000Y-101852000D01*
X163739839Y-101794148D01*
X163986401Y-101629401D01*
X165335362Y-100280440D01*
X166308000Y-100280440D01*
X166543317Y-100236162D01*
X166759441Y-100097090D01*
X166904431Y-99884890D01*
X166955440Y-99633000D01*
X166955440Y-98233000D01*
X166911162Y-97997683D01*
X166776235Y-97788000D01*
X167833198Y-97788000D01*
X167896000Y-97850802D01*
X167896000Y-101219000D01*
X167953852Y-101509839D01*
X168118599Y-101756401D01*
X169007599Y-102645401D01*
X169254161Y-102810148D01*
X169387553Y-102836682D01*
X169628330Y-103197029D01*
X170114511Y-103521885D01*
X170688000Y-103635959D01*
X171261489Y-103521885D01*
X171747670Y-103197029D01*
X171958000Y-102882248D01*
X172168330Y-103197029D01*
X172654511Y-103521885D01*
X172979348Y-103586499D01*
X172959057Y-103594883D01*
X172695808Y-103857673D01*
X172553162Y-104201201D01*
X172552838Y-104573167D01*
X172694883Y-104916943D01*
X172957673Y-105180192D01*
X173301201Y-105322838D01*
X173336066Y-105322868D01*
X179294599Y-111281401D01*
X179541161Y-111446148D01*
X179832000Y-111504000D01*
X181737000Y-111504000D01*
X182027839Y-111446148D01*
X182274401Y-111281401D01*
X183791644Y-109764158D01*
X184120641Y-109829600D01*
X184179359Y-109829600D01*
X184752848Y-109715526D01*
X185168000Y-109438130D01*
X185168000Y-110556198D01*
X184216198Y-111508000D01*
X172907802Y-111508000D01*
X166622000Y-105222198D01*
X166622000Y-103403766D01*
X166737838Y-103124799D01*
X166738162Y-102752833D01*
X166596117Y-102409057D01*
X166333327Y-102145808D01*
X165989799Y-102003162D01*
X165617833Y-102002838D01*
X165274057Y-102144883D01*
X165010808Y-102407673D01*
X164868162Y-102751201D01*
X164867838Y-103123167D01*
X165009883Y-103466943D01*
X165102000Y-103559221D01*
X165102000Y-105537000D01*
X165159852Y-105827839D01*
X165324599Y-106074401D01*
X172055599Y-112805401D01*
X172302161Y-112970148D01*
X172593000Y-113028000D01*
X184531000Y-113028000D01*
X184821839Y-112970148D01*
X185068401Y-112805401D01*
X186465401Y-111408401D01*
X186630148Y-111161840D01*
X186688000Y-110871000D01*
X186688000Y-107569000D01*
X186630148Y-107278161D01*
X186465401Y-107031599D01*
X185602775Y-106168973D01*
X185677959Y-105791000D01*
X185563885Y-105217511D01*
X185239029Y-104731330D01*
X184924248Y-104521000D01*
X185239029Y-104310670D01*
X185563885Y-103824489D01*
X185677959Y-103251000D01*
X185563885Y-102677511D01*
X185239029Y-102191330D01*
X185217977Y-102177263D01*
X185373298Y-102112927D01*
X185551927Y-101934299D01*
X185648600Y-101700910D01*
X185648600Y-100996750D01*
X185489850Y-100838000D01*
X184277000Y-100838000D01*
X184277000Y-100858000D01*
X184023000Y-100858000D01*
X184023000Y-100838000D01*
X184003000Y-100838000D01*
X184003000Y-100584000D01*
X184023000Y-100584000D01*
X184023000Y-99371150D01*
X184277000Y-99371150D01*
X184277000Y-100584000D01*
X185489850Y-100584000D01*
X185648600Y-100425250D01*
X185648600Y-99721090D01*
X185551927Y-99487701D01*
X185373298Y-99309073D01*
X185139909Y-99212400D01*
X184435750Y-99212400D01*
X184277000Y-99371150D01*
X184023000Y-99371150D01*
X183864250Y-99212400D01*
X183160091Y-99212400D01*
X182926702Y-99309073D01*
X182748073Y-99487701D01*
X182684356Y-99641526D01*
X182212848Y-99326474D01*
X181639359Y-99212400D01*
X181580641Y-99212400D01*
X181007152Y-99326474D01*
X180520971Y-99651330D01*
X180196115Y-100137511D01*
X180082041Y-100711000D01*
X180196115Y-101284489D01*
X180520971Y-101770670D01*
X180835752Y-101981000D01*
X180520971Y-102191330D01*
X180196115Y-102677511D01*
X180082041Y-103251000D01*
X180196115Y-103824489D01*
X180408269Y-104142000D01*
X179384802Y-104142000D01*
X179116122Y-103873320D01*
X179116162Y-103827833D01*
X178974117Y-103484057D01*
X178941000Y-103450882D01*
X178941000Y-98552000D01*
X178930656Y-98500000D01*
X178883148Y-98261160D01*
X178718401Y-98014599D01*
X177448401Y-96744599D01*
X177201839Y-96579852D01*
X176911000Y-96522000D01*
X174117000Y-96522000D01*
X173826161Y-96579852D01*
X173579599Y-96744599D01*
X172690599Y-97633599D01*
X172525852Y-97880161D01*
X172468000Y-98171000D01*
X172468000Y-98278738D01*
X172168330Y-98478971D01*
X172154263Y-98500023D01*
X172089927Y-98344702D01*
X171911299Y-98166073D01*
X171677910Y-98069400D01*
X170973750Y-98069400D01*
X170815000Y-98228150D01*
X170815000Y-99441000D01*
X170835000Y-99441000D01*
X170835000Y-99695000D01*
X170815000Y-99695000D01*
X170815000Y-99715000D01*
X170561000Y-99715000D01*
X170561000Y-99695000D01*
X170541000Y-99695000D01*
X170541000Y-99441000D01*
X170561000Y-99441000D01*
X170561000Y-98228150D01*
X170402250Y-98069400D01*
X169698090Y-98069400D01*
X169464701Y-98166073D01*
X169416000Y-98214774D01*
X169416000Y-97536000D01*
X169358148Y-97245161D01*
X169193401Y-96998599D01*
X168685401Y-96490599D01*
X168438839Y-96325852D01*
X168148000Y-96268000D01*
X163243005Y-96268000D01*
X163127799Y-96220162D01*
X162755833Y-96219838D01*
X162412057Y-96361883D01*
X162148808Y-96624673D01*
X162006162Y-96968201D01*
X162005838Y-97340167D01*
X162147883Y-97683943D01*
X162410673Y-97947192D01*
X162754201Y-98089838D01*
X163126167Y-98090162D01*
X163469943Y-97948117D01*
X163630340Y-97788000D01*
X164443515Y-97788000D01*
X164311569Y-97981110D01*
X164260560Y-98233000D01*
X164260560Y-99205638D01*
X163134198Y-100332000D01*
X159312463Y-100332000D01*
X159280327Y-100299808D01*
X159003223Y-100184744D01*
X159139441Y-100097090D01*
X159284431Y-99884890D01*
X159287795Y-99868275D01*
X159852331Y-99868275D01*
X159914169Y-100104042D01*
X160415122Y-100280419D01*
X160945440Y-100251664D01*
X161301831Y-100104042D01*
X161363669Y-99868275D01*
X160608000Y-99112605D01*
X159852331Y-99868275D01*
X159287795Y-99868275D01*
X159335440Y-99633000D01*
X159335440Y-99381745D01*
X159436958Y-99626831D01*
X159672725Y-99688669D01*
X160428395Y-98933000D01*
X160787605Y-98933000D01*
X161543275Y-99688669D01*
X161779042Y-99626831D01*
X161955419Y-99125878D01*
X161926664Y-98595560D01*
X161779042Y-98239169D01*
X161543275Y-98177331D01*
X160787605Y-98933000D01*
X160428395Y-98933000D01*
X159672725Y-98177331D01*
X159436958Y-98239169D01*
X159335440Y-98527504D01*
X159335440Y-98233000D01*
X159291170Y-97997725D01*
X159852331Y-97997725D01*
X160608000Y-98753395D01*
X161363669Y-97997725D01*
X161301831Y-97761958D01*
X160800878Y-97585581D01*
X160270560Y-97614336D01*
X159914169Y-97761958D01*
X159852331Y-97997725D01*
X159291170Y-97997725D01*
X159291162Y-97997683D01*
X159152090Y-97781559D01*
X158939890Y-97636569D01*
X158688000Y-97585560D01*
X157288000Y-97585560D01*
X157052683Y-97629838D01*
X156836559Y-97768910D01*
X156691569Y-97981110D01*
X156640560Y-98233000D01*
X154135522Y-98233000D01*
X153923275Y-98177331D01*
X153167605Y-98933000D01*
X152808395Y-98933000D01*
X152052725Y-98177331D01*
X151816958Y-98239169D01*
X151640581Y-98740122D01*
X151620508Y-98740122D01*
X151655268Y-98656413D01*
X151655731Y-98125914D01*
X151602765Y-97997725D01*
X152232331Y-97997725D01*
X152988000Y-98753395D01*
X153743669Y-97997725D01*
X153681831Y-97761958D01*
X153180878Y-97585581D01*
X152650560Y-97614336D01*
X152294169Y-97761958D01*
X152232331Y-97997725D01*
X151602765Y-97997725D01*
X151453146Y-97635620D01*
X151078353Y-97260173D01*
X150588413Y-97056732D01*
X150057914Y-97056269D01*
X149567620Y-97258854D01*
X149192173Y-97633647D01*
X148988732Y-98123587D01*
X148988269Y-98654086D01*
X149190854Y-99144380D01*
X149562000Y-99516174D01*
X149562000Y-103684464D01*
X149192173Y-104053647D01*
X148988732Y-104543587D01*
X148988269Y-105074086D01*
X149190854Y-105564380D01*
X149419411Y-105793335D01*
X149153632Y-105806638D01*
X148769857Y-105965603D01*
X148700392Y-106207787D01*
X142772804Y-106207787D01*
X142736729Y-106058389D01*
X142253922Y-105890378D01*
X141743572Y-105919917D01*
X141409271Y-106058389D01*
X141353590Y-106288984D01*
X140817347Y-106288984D01*
X140687090Y-106086559D01*
X140474890Y-105941569D01*
X140223000Y-105890560D01*
X138923000Y-105890560D01*
X138687683Y-105934838D01*
X138471559Y-106073910D01*
X138326569Y-106286110D01*
X138275560Y-106538000D01*
X137620000Y-106538000D01*
X137620000Y-105074086D01*
X144508269Y-105074086D01*
X144710854Y-105564380D01*
X145085647Y-105939827D01*
X145575587Y-106143268D01*
X146106086Y-106143731D01*
X146596380Y-105941146D01*
X146971827Y-105566353D01*
X147175268Y-105076413D01*
X147175731Y-104545914D01*
X146973146Y-104055620D01*
X146598353Y-103680173D01*
X146108413Y-103476732D01*
X145577914Y-103476269D01*
X145087620Y-103678854D01*
X144712173Y-104053647D01*
X144508732Y-104543587D01*
X144508269Y-105074086D01*
X137620000Y-105074086D01*
X137620000Y-104627802D01*
X140395802Y-101852000D01*
X141039504Y-101852000D01*
X141107538Y-102016655D01*
X141566927Y-102476846D01*
X142167453Y-102726206D01*
X142817694Y-102726774D01*
X143418655Y-102478462D01*
X143878846Y-102019073D01*
X144128206Y-101418547D01*
X144128774Y-100768306D01*
X143880462Y-100167345D01*
X143421073Y-99707154D01*
X142820547Y-99457794D01*
X142170306Y-99457226D01*
X141569345Y-99705538D01*
X141109154Y-100164927D01*
X141039779Y-100332000D01*
X140081000Y-100332000D01*
X139790161Y-100389852D01*
X139543599Y-100554599D01*
X136322599Y-103775599D01*
X136157852Y-104022161D01*
X136100000Y-104313000D01*
X136100000Y-107678464D01*
X135730173Y-108047647D01*
X135526732Y-108537587D01*
X135526269Y-109068086D01*
X133700738Y-109068086D01*
X133725927Y-108996520D01*
X133697148Y-108466801D01*
X133549800Y-108111071D01*
X133314188Y-108049417D01*
X132559605Y-108804000D01*
X132200395Y-108804000D01*
X131445812Y-108049417D01*
X131210200Y-108111071D01*
X131034073Y-108611480D01*
X128472000Y-108611480D01*
X128472000Y-108134586D01*
X128708630Y-108371629D01*
X129221900Y-108584757D01*
X129777661Y-108585242D01*
X130291303Y-108373010D01*
X130684629Y-107980370D01*
X130730536Y-107869812D01*
X131625417Y-107869812D01*
X132380000Y-108624395D01*
X133134583Y-107869812D01*
X133072929Y-107634200D01*
X132572520Y-107458073D01*
X132042801Y-107486852D01*
X131687071Y-107634200D01*
X131625417Y-107869812D01*
X130730536Y-107869812D01*
X130897757Y-107467100D01*
X130898242Y-106911339D01*
X130686010Y-106397697D01*
X130293370Y-106004371D01*
X129780100Y-105791243D01*
X129224339Y-105790758D01*
X128710697Y-106002990D01*
X128472000Y-106241271D01*
X128472000Y-101415694D01*
X133239226Y-101415694D01*
X133487538Y-102016655D01*
X133946927Y-102476846D01*
X134547453Y-102726206D01*
X135197694Y-102726774D01*
X135798655Y-102478462D01*
X136258846Y-102019073D01*
X136508206Y-101418547D01*
X136508774Y-100768306D01*
X136260462Y-100167345D01*
X135801073Y-99707154D01*
X135200547Y-99457794D01*
X134550306Y-99457226D01*
X133949345Y-99705538D01*
X133489154Y-100164927D01*
X133239794Y-100765453D01*
X133239226Y-101415694D01*
X128472000Y-101415694D01*
X128472000Y-101082379D01*
X132464734Y-100964945D01*
X132513828Y-100953491D01*
X132554599Y-100923839D01*
X132580620Y-100880661D01*
X132587833Y-100844504D01*
X132673486Y-99174278D01*
X132750332Y-99059269D01*
X132794245Y-98953254D01*
X132856347Y-98803328D01*
X132904516Y-98561163D01*
X133901443Y-98561163D01*
X134000042Y-98827965D01*
X134609582Y-99054401D01*
X135259377Y-99030341D01*
X135747958Y-98827965D01*
X135846557Y-98561163D01*
X134874000Y-97588605D01*
X133901443Y-98561163D01*
X132904516Y-98561163D01*
X133030358Y-97928513D01*
X133030358Y-97858584D01*
X133044000Y-97790000D01*
X133044000Y-97144582D01*
X133228599Y-97144582D01*
X133252659Y-97794377D01*
X133455035Y-98282958D01*
X133721837Y-98381557D01*
X134694395Y-97409000D01*
X135053605Y-97409000D01*
X136026163Y-98381557D01*
X136292965Y-98282958D01*
X136519401Y-97673418D01*
X136495341Y-97023623D01*
X136292965Y-96535042D01*
X136026163Y-96436443D01*
X135053605Y-97409000D01*
X134694395Y-97409000D01*
X133721837Y-96436443D01*
X133455035Y-96535042D01*
X133228599Y-97144582D01*
X133044000Y-97144582D01*
X133044000Y-96214000D01*
X133917274Y-96214000D01*
X133901443Y-96256837D01*
X133901443Y-96256837D01*
G37*
X133901443Y-96256837D02*
X134874000Y-97229395D01*
X135846557Y-96256837D01*
X135830726Y-96214000D01*
X141377549Y-96214000D01*
X141109154Y-96481927D01*
X140859794Y-97082453D01*
X140859226Y-97732694D01*
X141107538Y-98333655D01*
X141566927Y-98793846D01*
X142167453Y-99043206D01*
X142817694Y-99043774D01*
X143418655Y-98795462D01*
X143560277Y-98654086D01*
X144508269Y-98654086D01*
X144710854Y-99144380D01*
X145085647Y-99519827D01*
X145575587Y-99723268D01*
X146106086Y-99723731D01*
X146596380Y-99521146D01*
X146971827Y-99146353D01*
X147175268Y-98656413D01*
X147175731Y-98125914D01*
X146973146Y-97635620D01*
X146598353Y-97260173D01*
X146108413Y-97056732D01*
X145577914Y-97056269D01*
X145087620Y-97258854D01*
X144712173Y-97633647D01*
X144508732Y-98123587D01*
X144508269Y-98654086D01*
X143560277Y-98654086D01*
X143878846Y-98336073D01*
X144128206Y-97735547D01*
X144128774Y-97085306D01*
X144059691Y-96918111D01*
X144078802Y-96899000D01*
X148154759Y-96899000D01*
X148313673Y-97058192D01*
X148657201Y-97200838D01*
X149029167Y-97201162D01*
X149372943Y-97059117D01*
X149636192Y-96796327D01*
X149778838Y-96452799D01*
X149779046Y-96214000D01*
X178013908Y-96214000D01*
X180091954Y-98292046D01*
X180322295Y-98445954D01*
X180594000Y-98500000D01*
X180871021Y-98500000D01*
X180883134Y-98512690D01*
X180924488Y-98541523D01*
X180973802Y-98551994D01*
X181023304Y-98542455D01*
X181065195Y-98514408D01*
X181074660Y-98500000D01*
X190552000Y-98500000D01*
X190552000Y-103938000D01*
X189992000Y-103938000D01*
X189923416Y-103951642D01*
X188978672Y-104125653D01*
X188828746Y-104187755D01*
X188766537Y-104213523D01*
X187320300Y-104267087D01*
X187271294Y-104278915D01*
X187230750Y-104308877D01*
X187205058Y-104352252D01*
X187198125Y-104399639D01*
X187257774Y-105741731D01*
X187183653Y-105920672D01*
X187009642Y-106795486D01*
X187009643Y-106934000D01*
X187009642Y-107072514D01*
X187183653Y-107947328D01*
X187249544Y-108106401D01*
X187289668Y-108203269D01*
X187372698Y-108327532D01*
X187452125Y-110114639D01*
X187464315Y-110163556D01*
X187494576Y-110203877D01*
X187538140Y-110229247D01*
X187579000Y-110236000D01*
X190500000Y-110236000D01*
X190500000Y-115368000D01*
X180594000Y-115368000D01*
X180322295Y-115422046D01*
X180091954Y-115575954D01*
X178013908Y-117654000D01*
X150887301Y-117654000D01*
X151038655Y-117591462D01*
X151498846Y-117132073D01*
X151748206Y-116531547D01*
X151748774Y-115881306D01*
X151500462Y-115280345D01*
X151041073Y-114820154D01*
X150874000Y-114750779D01*
X150874000Y-114362000D01*
X154608560Y-114362000D01*
X154608560Y-115762000D01*
X154652838Y-115997317D01*
X154791910Y-116213441D01*
X155004110Y-116358431D01*
X155256000Y-116409440D01*
X156656000Y-116409440D01*
X156891317Y-116365162D01*
X157107441Y-116226090D01*
X157252431Y-116013890D01*
X157255795Y-115997275D01*
X160200331Y-115997275D01*
X160262169Y-116233042D01*
X160763122Y-116409419D01*
X161293440Y-116380664D01*
X161649831Y-116233042D01*
X161711669Y-115997275D01*
X160956000Y-115241605D01*
X160200331Y-115997275D01*
X157255795Y-115997275D01*
X157303440Y-115762000D01*
X157303440Y-114869122D01*
X159608581Y-114869122D01*
X159637336Y-115399440D01*
X159784958Y-115755831D01*
X160020725Y-115817669D01*
X160776395Y-115062000D01*
X161135605Y-115062000D01*
X161891275Y-115817669D01*
X162127042Y-115755831D01*
X162303419Y-115254878D01*
X162274664Y-114724560D01*
X162127042Y-114368169D01*
X161891275Y-114306331D01*
X161135605Y-115062000D01*
X160776395Y-115062000D01*
X160020725Y-114306331D01*
X159784958Y-114368169D01*
X159608581Y-114869122D01*
X157303440Y-114869122D01*
X157303440Y-114362000D01*
X157259170Y-114126725D01*
X160200331Y-114126725D01*
X160956000Y-114882395D01*
X161711669Y-114126725D01*
X161649831Y-113890958D01*
X161148878Y-113714581D01*
X160618560Y-113743336D01*
X160262169Y-113890958D01*
X160200331Y-114126725D01*
X157259170Y-114126725D01*
X157259162Y-114126683D01*
X157120090Y-113910559D01*
X156907890Y-113765569D01*
X156656000Y-113714560D01*
X155256000Y-113714560D01*
X155020683Y-113758838D01*
X154804559Y-113897910D01*
X154659569Y-114110110D01*
X154608560Y-114362000D01*
X150874000Y-114362000D01*
X150874000Y-110290463D01*
X150906192Y-110258327D01*
X151048838Y-109914799D01*
X151049162Y-109542833D01*
X150907117Y-109199057D01*
X150644327Y-108935808D01*
X150300799Y-108793162D01*
X149928833Y-108792838D01*
X149585057Y-108934883D01*
X149321808Y-109197673D01*
X149179162Y-109541201D01*
X149178838Y-109913167D01*
X149320883Y-110256943D01*
X149354000Y-110290118D01*
X149354000Y-114750504D01*
X149189345Y-114818538D01*
X148729154Y-115277927D01*
X148479794Y-115878453D01*
X148479226Y-116528694D01*
X148727538Y-117129655D01*
X149186927Y-117589846D01*
X149341427Y-117654000D01*
X143267301Y-117654000D01*
X143418655Y-117591462D01*
X143878846Y-117132073D01*
X144128206Y-116531547D01*
X144128774Y-115881306D01*
X143880462Y-115280345D01*
X143421073Y-114820154D01*
X142820547Y-114570794D01*
X142170306Y-114570226D01*
X141569345Y-114818538D01*
X141109154Y-115277927D01*
X140859794Y-115878453D01*
X140859226Y-116528694D01*
X141107538Y-117129655D01*
X141566927Y-117589846D01*
X141721427Y-117654000D01*
X128472000Y-117654000D01*
X128472000Y-116158188D01*
X131625417Y-116158188D01*
X131687071Y-116393800D01*
X132187480Y-116569927D01*
X132717199Y-116541148D01*
X133072929Y-116393800D01*
X133134583Y-116158188D01*
X132380000Y-115403605D01*
X131625417Y-116158188D01*
X128472000Y-116158188D01*
X128472000Y-115031480D01*
X131034073Y-115031480D01*
X131062852Y-115561199D01*
X131210200Y-115916929D01*
X131445812Y-115978583D01*
X132200395Y-115224000D01*
X132559605Y-115224000D01*
X133314188Y-115978583D01*
X133549800Y-115916929D01*
X133725927Y-115416520D01*
X133697148Y-114886801D01*
X133549800Y-114531071D01*
X133314188Y-114469417D01*
X132559605Y-115224000D01*
X132200395Y-115224000D01*
X131445812Y-114469417D01*
X131210200Y-114531071D01*
X131034073Y-115031480D01*
X128472000Y-115031480D01*
X128472000Y-114289812D01*
X131625417Y-114289812D01*
X132380000Y-115044395D01*
X133134583Y-114289812D01*
X133072929Y-114054200D01*
X132572520Y-113878073D01*
X132042801Y-113906852D01*
X131687071Y-114054200D01*
X131625417Y-114289812D01*
X128472000Y-114289812D01*
X128472000Y-109738188D01*
X131625417Y-109738188D01*
X131687071Y-109973800D01*
X132187480Y-110149927D01*
X132717199Y-110121148D01*
X133072929Y-109973800D01*
X133134583Y-109738188D01*
X132380000Y-108983605D01*
X131625417Y-109738188D01*
X128472000Y-109738188D01*
X128472000Y-108611480D01*
X131034073Y-108611480D01*
X131062852Y-109141199D01*
X131210200Y-109496929D01*
X131445812Y-109558583D01*
X132200395Y-108804000D01*
X132559605Y-108804000D01*
X133314188Y-109558583D01*
X133549800Y-109496929D01*
X133700738Y-109068086D01*
X135526269Y-109068086D01*
X135728854Y-109558380D01*
X136100000Y-109930174D01*
X136100000Y-114098464D01*
X135730173Y-114467647D01*
X135526732Y-114957587D01*
X135526269Y-115488086D01*
X135728854Y-115978380D01*
X136103647Y-116353827D01*
X136593587Y-116557268D01*
X137124086Y-116557731D01*
X137614380Y-116355146D01*
X137989827Y-115980353D01*
X138193268Y-115490413D01*
X138193731Y-114959914D01*
X137991146Y-114469620D01*
X137620000Y-114097826D01*
X137620000Y-112337795D01*
X143398716Y-112337795D01*
X143647106Y-112938943D01*
X144106637Y-113399278D01*
X144707352Y-113648716D01*
X145357795Y-113649284D01*
X145958943Y-113400894D01*
X146021197Y-113338749D01*
X146035673Y-113373698D01*
X146214301Y-113552327D01*
X146447690Y-113649000D01*
X147288250Y-113649000D01*
X147447000Y-113490250D01*
X147447000Y-112141000D01*
X147701000Y-112141000D01*
X147701000Y-113490250D01*
X147859750Y-113649000D01*
X148700310Y-113649000D01*
X148933699Y-113552327D01*
X149112327Y-113373698D01*
X149209000Y-113140309D01*
X149209000Y-112299750D01*
X149050250Y-112141000D01*
X147701000Y-112141000D01*
X147447000Y-112141000D01*
X147427000Y-112141000D01*
X147427000Y-111887000D01*
X147447000Y-111887000D01*
X147447000Y-110537750D01*
X147701000Y-110537750D01*
X147701000Y-111887000D01*
X149050250Y-111887000D01*
X149209000Y-111728250D01*
X149209000Y-110887691D01*
X149112327Y-110654302D01*
X148933699Y-110475673D01*
X148700310Y-110379000D01*
X147859750Y-110379000D01*
X147701000Y-110537750D01*
X147447000Y-110537750D01*
X147288250Y-110379000D01*
X146447690Y-110379000D01*
X146214301Y-110475673D01*
X146035673Y-110654302D01*
X146021370Y-110688834D01*
X145961363Y-110628722D01*
X145360648Y-110379284D01*
X144710205Y-110378716D01*
X144109057Y-110627106D01*
X143648722Y-111086637D01*
X143399284Y-111687352D01*
X143398716Y-112337795D01*
X137620000Y-112337795D01*
X137620000Y-109929536D01*
X137989827Y-109560353D01*
X138193268Y-109070413D01*
X138193731Y-108539914D01*
X137991146Y-108049620D01*
X137620000Y-107677826D01*
X137620000Y-106538000D01*
X138275560Y-106538000D01*
X138275560Y-107838000D01*
X138319838Y-108073317D01*
X138458910Y-108289441D01*
X138671110Y-108434431D01*
X138923000Y-108485440D01*
X140223000Y-108485440D01*
X140458317Y-108441162D01*
X140674441Y-108302090D01*
X140819431Y-108089890D01*
X140820012Y-108087016D01*
X141353590Y-108087016D01*
X141409271Y-108317611D01*
X141892078Y-108485622D01*
X142402428Y-108456083D01*
X142736729Y-108317611D01*
X142772803Y-108168213D01*
X148700392Y-108168213D01*
X148769857Y-108410397D01*
X149293302Y-108597144D01*
X149848368Y-108569362D01*
X150232143Y-108410397D01*
X150301608Y-108168213D01*
X149501000Y-107367605D01*
X148700392Y-108168213D01*
X142772803Y-108168213D01*
X142792410Y-108087016D01*
X142073000Y-107367605D01*
X141353590Y-108087016D01*
X140820012Y-108087016D01*
X140870440Y-107838000D01*
X140870440Y-107675615D01*
X140943389Y-107851729D01*
X141173984Y-107907410D01*
X141893395Y-107188000D01*
X142252605Y-107188000D01*
X142972016Y-107907410D01*
X143202611Y-107851729D01*
X143370622Y-107368922D01*
X143348129Y-106980302D01*
X148091856Y-106980302D01*
X148119638Y-107535368D01*
X148278603Y-107919143D01*
X148520787Y-107988608D01*
X149321395Y-107188000D01*
X149680605Y-107188000D01*
X150481213Y-107988608D01*
X150723397Y-107919143D01*
X150910144Y-107395698D01*
X150882362Y-106840632D01*
X150723397Y-106456857D01*
X150481213Y-106387392D01*
X149680605Y-107188000D01*
X149321395Y-107188000D01*
X148520787Y-106387392D01*
X148278603Y-106456857D01*
X148091856Y-106980302D01*
X143348129Y-106980302D01*
X143341083Y-106858572D01*
X143202611Y-106524271D01*
X142972016Y-106468590D01*
X142252605Y-107188000D01*
X141893395Y-107188000D01*
X141173984Y-106468590D01*
X140943389Y-106524271D01*
X140870440Y-106733902D01*
X140870440Y-106538000D01*
X140826162Y-106302683D01*
X140817347Y-106288984D01*
X141353590Y-106288984D01*
X142073000Y-107008395D01*
X142792410Y-106288984D01*
X142772804Y-106207787D01*
X148700392Y-106207787D01*
X149501000Y-107008395D01*
X150301608Y-106207787D01*
X150283159Y-106143467D01*
X150586086Y-106143731D01*
X151076380Y-105941146D01*
X151339591Y-105678393D01*
X151386000Y-105724802D01*
X151386000Y-109474000D01*
X151443852Y-109764839D01*
X151608599Y-110011401D01*
X151718878Y-110121680D01*
X151718838Y-110167167D01*
X151860883Y-110510943D01*
X152123673Y-110774192D01*
X152467201Y-110916838D01*
X152839167Y-110917162D01*
X153182943Y-110775117D01*
X153446192Y-110512327D01*
X153588838Y-110168799D01*
X153589162Y-109796833D01*
X153447117Y-109453057D01*
X153184327Y-109189808D01*
X152906000Y-109074236D01*
X152906000Y-105410000D01*
X152848148Y-105119161D01*
X152683401Y-104872599D01*
X152083401Y-104272599D01*
X151836839Y-104107852D01*
X151546000Y-104050000D01*
X151447536Y-104050000D01*
X151082000Y-103683826D01*
X151082000Y-99868275D01*
X152232331Y-99868275D01*
X152294169Y-100104042D01*
X152795122Y-100280419D01*
X153325440Y-100251664D01*
X153681831Y-100104042D01*
X153743669Y-99868275D01*
X152988000Y-99112605D01*
X152232331Y-99868275D01*
X151082000Y-99868275D01*
X151082000Y-99515536D01*
X151451827Y-99146353D01*
X151620508Y-98740122D01*
X151640581Y-98740122D01*
X151669336Y-99270440D01*
X151816958Y-99626831D01*
X152052725Y-99688669D01*
X152808395Y-98933000D01*
X153167605Y-98933000D01*
X153923275Y-99688669D01*
X154159042Y-99626831D01*
X154335419Y-99125878D01*
X154306664Y-98595560D01*
X154159042Y-98239169D01*
X154135522Y-98233000D01*
X156640560Y-98233000D01*
X156640560Y-99633000D01*
X156684838Y-99868317D01*
X156823910Y-100084441D01*
X157036110Y-100229431D01*
X157288000Y-100280440D01*
X158265693Y-100280440D01*
X158221057Y-100298883D01*
X157957808Y-100561673D01*
X157815162Y-100905201D01*
X157814838Y-101277167D01*
X157956883Y-101620943D01*
X158219673Y-101884192D01*
X158563201Y-102026838D01*
X158935167Y-102027162D01*
X159278943Y-101885117D01*
X159312118Y-101852000D01*
X163449000Y-101852000D01*
X163739839Y-101794148D01*
X163986401Y-101629401D01*
X165335362Y-100280440D01*
X166308000Y-100280440D01*
X166543317Y-100236162D01*
X166759441Y-100097090D01*
X166904431Y-99884890D01*
X166955440Y-99633000D01*
X166955440Y-98233000D01*
X166911162Y-97997683D01*
X166776235Y-97788000D01*
X167833198Y-97788000D01*
X167896000Y-97850802D01*
X167896000Y-101219000D01*
X167953852Y-101509839D01*
X168118599Y-101756401D01*
X169007599Y-102645401D01*
X169254161Y-102810148D01*
X169387553Y-102836682D01*
X169628330Y-103197029D01*
X170114511Y-103521885D01*
X170688000Y-103635959D01*
X171261489Y-103521885D01*
X171747670Y-103197029D01*
X171958000Y-102882248D01*
X172168330Y-103197029D01*
X172654511Y-103521885D01*
X172979348Y-103586499D01*
X172959057Y-103594883D01*
X172695808Y-103857673D01*
X172553162Y-104201201D01*
X172552838Y-104573167D01*
X172694883Y-104916943D01*
X172957673Y-105180192D01*
X173301201Y-105322838D01*
X173336066Y-105322868D01*
X179294599Y-111281401D01*
X179541161Y-111446148D01*
X179832000Y-111504000D01*
X181737000Y-111504000D01*
X182027839Y-111446148D01*
X182274401Y-111281401D01*
X183791644Y-109764158D01*
X184120641Y-109829600D01*
X184179359Y-109829600D01*
X184752848Y-109715526D01*
X185168000Y-109438130D01*
X185168000Y-110556198D01*
X184216198Y-111508000D01*
X172907802Y-111508000D01*
X166622000Y-105222198D01*
X166622000Y-103403766D01*
X166737838Y-103124799D01*
X166738162Y-102752833D01*
X166596117Y-102409057D01*
X166333327Y-102145808D01*
X165989799Y-102003162D01*
X165617833Y-102002838D01*
X165274057Y-102144883D01*
X165010808Y-102407673D01*
X164868162Y-102751201D01*
X164867838Y-103123167D01*
X165009883Y-103466943D01*
X165102000Y-103559221D01*
X165102000Y-105537000D01*
X165159852Y-105827839D01*
X165324599Y-106074401D01*
X172055599Y-112805401D01*
X172302161Y-112970148D01*
X172593000Y-113028000D01*
X184531000Y-113028000D01*
X184821839Y-112970148D01*
X185068401Y-112805401D01*
X186465401Y-111408401D01*
X186630148Y-111161840D01*
X186688000Y-110871000D01*
X186688000Y-107569000D01*
X186630148Y-107278161D01*
X186465401Y-107031599D01*
X185602775Y-106168973D01*
X185677959Y-105791000D01*
X185563885Y-105217511D01*
X185239029Y-104731330D01*
X184924248Y-104521000D01*
X185239029Y-104310670D01*
X185563885Y-103824489D01*
X185677959Y-103251000D01*
X185563885Y-102677511D01*
X185239029Y-102191330D01*
X185217977Y-102177263D01*
X185373298Y-102112927D01*
X185551927Y-101934299D01*
X185648600Y-101700910D01*
X185648600Y-100996750D01*
X185489850Y-100838000D01*
X184277000Y-100838000D01*
X184277000Y-100858000D01*
X184023000Y-100858000D01*
X184023000Y-100838000D01*
X184003000Y-100838000D01*
X184003000Y-100584000D01*
X184023000Y-100584000D01*
X184023000Y-99371150D01*
X184277000Y-99371150D01*
X184277000Y-100584000D01*
X185489850Y-100584000D01*
X185648600Y-100425250D01*
X185648600Y-99721090D01*
X185551927Y-99487701D01*
X185373298Y-99309073D01*
X185139909Y-99212400D01*
X184435750Y-99212400D01*
X184277000Y-99371150D01*
X184023000Y-99371150D01*
X183864250Y-99212400D01*
X183160091Y-99212400D01*
X182926702Y-99309073D01*
X182748073Y-99487701D01*
X182684356Y-99641526D01*
X182212848Y-99326474D01*
X181639359Y-99212400D01*
X181580641Y-99212400D01*
X181007152Y-99326474D01*
X180520971Y-99651330D01*
X180196115Y-100137511D01*
X180082041Y-100711000D01*
X180196115Y-101284489D01*
X180520971Y-101770670D01*
X180835752Y-101981000D01*
X180520971Y-102191330D01*
X180196115Y-102677511D01*
X180082041Y-103251000D01*
X180196115Y-103824489D01*
X180408269Y-104142000D01*
X179384802Y-104142000D01*
X179116122Y-103873320D01*
X179116162Y-103827833D01*
X178974117Y-103484057D01*
X178941000Y-103450882D01*
X178941000Y-98552000D01*
X178930656Y-98500000D01*
X178883148Y-98261160D01*
X178718401Y-98014599D01*
X177448401Y-96744599D01*
X177201839Y-96579852D01*
X176911000Y-96522000D01*
X174117000Y-96522000D01*
X173826161Y-96579852D01*
X173579599Y-96744599D01*
X172690599Y-97633599D01*
X172525852Y-97880161D01*
X172468000Y-98171000D01*
X172468000Y-98278738D01*
X172168330Y-98478971D01*
X172154263Y-98500023D01*
X172089927Y-98344702D01*
X171911299Y-98166073D01*
X171677910Y-98069400D01*
X170973750Y-98069400D01*
X170815000Y-98228150D01*
X170815000Y-99441000D01*
X170835000Y-99441000D01*
X170835000Y-99695000D01*
X170815000Y-99695000D01*
X170815000Y-99715000D01*
X170561000Y-99715000D01*
X170561000Y-99695000D01*
X170541000Y-99695000D01*
X170541000Y-99441000D01*
X170561000Y-99441000D01*
X170561000Y-98228150D01*
X170402250Y-98069400D01*
X169698090Y-98069400D01*
X169464701Y-98166073D01*
X169416000Y-98214774D01*
X169416000Y-97536000D01*
X169358148Y-97245161D01*
X169193401Y-96998599D01*
X168685401Y-96490599D01*
X168438839Y-96325852D01*
X168148000Y-96268000D01*
X163243005Y-96268000D01*
X163127799Y-96220162D01*
X162755833Y-96219838D01*
X162412057Y-96361883D01*
X162148808Y-96624673D01*
X162006162Y-96968201D01*
X162005838Y-97340167D01*
X162147883Y-97683943D01*
X162410673Y-97947192D01*
X162754201Y-98089838D01*
X163126167Y-98090162D01*
X163469943Y-97948117D01*
X163630340Y-97788000D01*
X164443515Y-97788000D01*
X164311569Y-97981110D01*
X164260560Y-98233000D01*
X164260560Y-99205638D01*
X163134198Y-100332000D01*
X159312463Y-100332000D01*
X159280327Y-100299808D01*
X159003223Y-100184744D01*
X159139441Y-100097090D01*
X159284431Y-99884890D01*
X159287795Y-99868275D01*
X159852331Y-99868275D01*
X159914169Y-100104042D01*
X160415122Y-100280419D01*
X160945440Y-100251664D01*
X161301831Y-100104042D01*
X161363669Y-99868275D01*
X160608000Y-99112605D01*
X159852331Y-99868275D01*
X159287795Y-99868275D01*
X159335440Y-99633000D01*
X159335440Y-99381745D01*
X159436958Y-99626831D01*
X159672725Y-99688669D01*
X160428395Y-98933000D01*
X160787605Y-98933000D01*
X161543275Y-99688669D01*
X161779042Y-99626831D01*
X161955419Y-99125878D01*
X161926664Y-98595560D01*
X161779042Y-98239169D01*
X161543275Y-98177331D01*
X160787605Y-98933000D01*
X160428395Y-98933000D01*
X159672725Y-98177331D01*
X159436958Y-98239169D01*
X159335440Y-98527504D01*
X159335440Y-98233000D01*
X159291170Y-97997725D01*
X159852331Y-97997725D01*
X160608000Y-98753395D01*
X161363669Y-97997725D01*
X161301831Y-97761958D01*
X160800878Y-97585581D01*
X160270560Y-97614336D01*
X159914169Y-97761958D01*
X159852331Y-97997725D01*
X159291170Y-97997725D01*
X159291162Y-97997683D01*
X159152090Y-97781559D01*
X158939890Y-97636569D01*
X158688000Y-97585560D01*
X157288000Y-97585560D01*
X157052683Y-97629838D01*
X156836559Y-97768910D01*
X156691569Y-97981110D01*
X156640560Y-98233000D01*
X154135522Y-98233000D01*
X153923275Y-98177331D01*
X153167605Y-98933000D01*
X152808395Y-98933000D01*
X152052725Y-98177331D01*
X151816958Y-98239169D01*
X151640581Y-98740122D01*
X151620508Y-98740122D01*
X151655268Y-98656413D01*
X151655731Y-98125914D01*
X151602765Y-97997725D01*
X152232331Y-97997725D01*
X152988000Y-98753395D01*
X153743669Y-97997725D01*
X153681831Y-97761958D01*
X153180878Y-97585581D01*
X152650560Y-97614336D01*
X152294169Y-97761958D01*
X152232331Y-97997725D01*
X151602765Y-97997725D01*
X151453146Y-97635620D01*
X151078353Y-97260173D01*
X150588413Y-97056732D01*
X150057914Y-97056269D01*
X149567620Y-97258854D01*
X149192173Y-97633647D01*
X148988732Y-98123587D01*
X148988269Y-98654086D01*
X149190854Y-99144380D01*
X149562000Y-99516174D01*
X149562000Y-103684464D01*
X149192173Y-104053647D01*
X148988732Y-104543587D01*
X148988269Y-105074086D01*
X149190854Y-105564380D01*
X149419411Y-105793335D01*
X149153632Y-105806638D01*
X148769857Y-105965603D01*
X148700392Y-106207787D01*
X142772804Y-106207787D01*
X142736729Y-106058389D01*
X142253922Y-105890378D01*
X141743572Y-105919917D01*
X141409271Y-106058389D01*
X141353590Y-106288984D01*
X140817347Y-106288984D01*
X140687090Y-106086559D01*
X140474890Y-105941569D01*
X140223000Y-105890560D01*
X138923000Y-105890560D01*
X138687683Y-105934838D01*
X138471559Y-106073910D01*
X138326569Y-106286110D01*
X138275560Y-106538000D01*
X137620000Y-106538000D01*
X137620000Y-105074086D01*
X144508269Y-105074086D01*
X144710854Y-105564380D01*
X145085647Y-105939827D01*
X145575587Y-106143268D01*
X146106086Y-106143731D01*
X146596380Y-105941146D01*
X146971827Y-105566353D01*
X147175268Y-105076413D01*
X147175731Y-104545914D01*
X146973146Y-104055620D01*
X146598353Y-103680173D01*
X146108413Y-103476732D01*
X145577914Y-103476269D01*
X145087620Y-103678854D01*
X144712173Y-104053647D01*
X144508732Y-104543587D01*
X144508269Y-105074086D01*
X137620000Y-105074086D01*
X137620000Y-104627802D01*
X140395802Y-101852000D01*
X141039504Y-101852000D01*
X141107538Y-102016655D01*
X141566927Y-102476846D01*
X142167453Y-102726206D01*
X142817694Y-102726774D01*
X143418655Y-102478462D01*
X143878846Y-102019073D01*
X144128206Y-101418547D01*
X144128774Y-100768306D01*
X143880462Y-100167345D01*
X143421073Y-99707154D01*
X142820547Y-99457794D01*
X142170306Y-99457226D01*
X141569345Y-99705538D01*
X141109154Y-100164927D01*
X141039779Y-100332000D01*
X140081000Y-100332000D01*
X139790161Y-100389852D01*
X139543599Y-100554599D01*
X136322599Y-103775599D01*
X136157852Y-104022161D01*
X136100000Y-104313000D01*
X136100000Y-107678464D01*
X135730173Y-108047647D01*
X135526732Y-108537587D01*
X135526269Y-109068086D01*
X133700738Y-109068086D01*
X133725927Y-108996520D01*
X133697148Y-108466801D01*
X133549800Y-108111071D01*
X133314188Y-108049417D01*
X132559605Y-108804000D01*
X132200395Y-108804000D01*
X131445812Y-108049417D01*
X131210200Y-108111071D01*
X131034073Y-108611480D01*
X128472000Y-108611480D01*
X128472000Y-108134586D01*
X128708630Y-108371629D01*
X129221900Y-108584757D01*
X129777661Y-108585242D01*
X130291303Y-108373010D01*
X130684629Y-107980370D01*
X130730536Y-107869812D01*
X131625417Y-107869812D01*
X132380000Y-108624395D01*
X133134583Y-107869812D01*
X133072929Y-107634200D01*
X132572520Y-107458073D01*
X132042801Y-107486852D01*
X131687071Y-107634200D01*
X131625417Y-107869812D01*
X130730536Y-107869812D01*
X130897757Y-107467100D01*
X130898242Y-106911339D01*
X130686010Y-106397697D01*
X130293370Y-106004371D01*
X129780100Y-105791243D01*
X129224339Y-105790758D01*
X128710697Y-106002990D01*
X128472000Y-106241271D01*
X128472000Y-101415694D01*
X133239226Y-101415694D01*
X133487538Y-102016655D01*
X133946927Y-102476846D01*
X134547453Y-102726206D01*
X135197694Y-102726774D01*
X135798655Y-102478462D01*
X136258846Y-102019073D01*
X136508206Y-101418547D01*
X136508774Y-100768306D01*
X136260462Y-100167345D01*
X135801073Y-99707154D01*
X135200547Y-99457794D01*
X134550306Y-99457226D01*
X133949345Y-99705538D01*
X133489154Y-100164927D01*
X133239794Y-100765453D01*
X133239226Y-101415694D01*
X128472000Y-101415694D01*
X128472000Y-101082379D01*
X132464734Y-100964945D01*
X132513828Y-100953491D01*
X132554599Y-100923839D01*
X132580620Y-100880661D01*
X132587833Y-100844504D01*
X132673486Y-99174278D01*
X132750332Y-99059269D01*
X132794245Y-98953254D01*
X132856347Y-98803328D01*
X132904516Y-98561163D01*
X133901443Y-98561163D01*
X134000042Y-98827965D01*
X134609582Y-99054401D01*
X135259377Y-99030341D01*
X135747958Y-98827965D01*
X135846557Y-98561163D01*
X134874000Y-97588605D01*
X133901443Y-98561163D01*
X132904516Y-98561163D01*
X133030358Y-97928513D01*
X133030358Y-97858584D01*
X133044000Y-97790000D01*
X133044000Y-97144582D01*
X133228599Y-97144582D01*
X133252659Y-97794377D01*
X133455035Y-98282958D01*
X133721837Y-98381557D01*
X134694395Y-97409000D01*
X135053605Y-97409000D01*
X136026163Y-98381557D01*
X136292965Y-98282958D01*
X136519401Y-97673418D01*
X136495341Y-97023623D01*
X136292965Y-96535042D01*
X136026163Y-96436443D01*
X135053605Y-97409000D01*
X134694395Y-97409000D01*
X133721837Y-96436443D01*
X133455035Y-96535042D01*
X133228599Y-97144582D01*
X133044000Y-97144582D01*
X133044000Y-96214000D01*
X133917274Y-96214000D01*
X133901443Y-96256837D01*
M02*
