G04 #@! TF.FileFunction,Legend,Top*
%FSLAX46Y46*%
G04 Gerber Fmt 4.6, Leading zero omitted, Abs format (unit mm)*
G04 Created by KiCad (PCBNEW 4.0.2-4+6225~38~ubuntu14.04.1-stable) date Sat 05 Mar 2016 20:24:40 CET*
%MOMM*%
G01*
G04 APERTURE LIST*
%ADD10C,0.100000*%
%ADD11C,0.300000*%
%ADD12C,0.150000*%
G04 APERTURE END LIST*
D10*
D11*
X167330286Y-113000714D02*
X167258857Y-113072143D01*
X167044571Y-113143571D01*
X166901714Y-113143571D01*
X166687429Y-113072143D01*
X166544571Y-112929286D01*
X166473143Y-112786429D01*
X166401714Y-112500714D01*
X166401714Y-112286429D01*
X166473143Y-112000714D01*
X166544571Y-111857857D01*
X166687429Y-111715000D01*
X166901714Y-111643571D01*
X167044571Y-111643571D01*
X167258857Y-111715000D01*
X167330286Y-111786429D01*
X167973143Y-113143571D02*
X167973143Y-111643571D01*
X168616000Y-113143571D02*
X168616000Y-112357857D01*
X168544571Y-112215000D01*
X168401714Y-112143571D01*
X168187429Y-112143571D01*
X168044571Y-112215000D01*
X167973143Y-112286429D01*
X169973143Y-113143571D02*
X169973143Y-112357857D01*
X169901714Y-112215000D01*
X169758857Y-112143571D01*
X169473143Y-112143571D01*
X169330286Y-112215000D01*
X169973143Y-113072143D02*
X169830286Y-113143571D01*
X169473143Y-113143571D01*
X169330286Y-113072143D01*
X169258857Y-112929286D01*
X169258857Y-112786429D01*
X169330286Y-112643571D01*
X169473143Y-112572143D01*
X169830286Y-112572143D01*
X169973143Y-112500714D01*
X170901715Y-113143571D02*
X170758857Y-113072143D01*
X170687429Y-112929286D01*
X170687429Y-111643571D01*
X171687429Y-113143571D02*
X171544571Y-113072143D01*
X171473143Y-112929286D01*
X171473143Y-111643571D01*
X172830285Y-113072143D02*
X172687428Y-113143571D01*
X172401714Y-113143571D01*
X172258857Y-113072143D01*
X172187428Y-112929286D01*
X172187428Y-112357857D01*
X172258857Y-112215000D01*
X172401714Y-112143571D01*
X172687428Y-112143571D01*
X172830285Y-112215000D01*
X172901714Y-112357857D01*
X172901714Y-112500714D01*
X172187428Y-112643571D01*
X173544571Y-112143571D02*
X173544571Y-113143571D01*
X173544571Y-112286429D02*
X173615999Y-112215000D01*
X173758857Y-112143571D01*
X173973142Y-112143571D01*
X174115999Y-112215000D01*
X174187428Y-112357857D01*
X174187428Y-113143571D01*
X175544571Y-112143571D02*
X175544571Y-113357857D01*
X175473142Y-113500714D01*
X175401714Y-113572143D01*
X175258857Y-113643571D01*
X175044571Y-113643571D01*
X174901714Y-113572143D01*
X175544571Y-113072143D02*
X175401714Y-113143571D01*
X175116000Y-113143571D01*
X174973142Y-113072143D01*
X174901714Y-113000714D01*
X174830285Y-112857857D01*
X174830285Y-112429286D01*
X174901714Y-112286429D01*
X174973142Y-112215000D01*
X175116000Y-112143571D01*
X175401714Y-112143571D01*
X175544571Y-112215000D01*
X176830285Y-113072143D02*
X176687428Y-113143571D01*
X176401714Y-113143571D01*
X176258857Y-113072143D01*
X176187428Y-112929286D01*
X176187428Y-112357857D01*
X176258857Y-112215000D01*
X176401714Y-112143571D01*
X176687428Y-112143571D01*
X176830285Y-112215000D01*
X176901714Y-112357857D01*
X176901714Y-112500714D01*
X176187428Y-112643571D01*
X179544571Y-113143571D02*
X179044571Y-112429286D01*
X178687428Y-113143571D02*
X178687428Y-111643571D01*
X179258856Y-111643571D01*
X179401714Y-111715000D01*
X179473142Y-111786429D01*
X179544571Y-111929286D01*
X179544571Y-112143571D01*
X179473142Y-112286429D01*
X179401714Y-112357857D01*
X179258856Y-112429286D01*
X178687428Y-112429286D01*
X180758856Y-113072143D02*
X180615999Y-113143571D01*
X180330285Y-113143571D01*
X180187428Y-113072143D01*
X180115999Y-112929286D01*
X180115999Y-112357857D01*
X180187428Y-112215000D01*
X180330285Y-112143571D01*
X180615999Y-112143571D01*
X180758856Y-112215000D01*
X180830285Y-112357857D01*
X180830285Y-112500714D01*
X180115999Y-112643571D01*
X181401713Y-113072143D02*
X181544570Y-113143571D01*
X181830285Y-113143571D01*
X181973142Y-113072143D01*
X182044570Y-112929286D01*
X182044570Y-112857857D01*
X181973142Y-112715000D01*
X181830285Y-112643571D01*
X181615999Y-112643571D01*
X181473142Y-112572143D01*
X181401713Y-112429286D01*
X181401713Y-112357857D01*
X181473142Y-112215000D01*
X181615999Y-112143571D01*
X181830285Y-112143571D01*
X181973142Y-112215000D01*
X182687428Y-112143571D02*
X182687428Y-113643571D01*
X182687428Y-112215000D02*
X182830285Y-112143571D01*
X183115999Y-112143571D01*
X183258856Y-112215000D01*
X183330285Y-112286429D01*
X183401714Y-112429286D01*
X183401714Y-112857857D01*
X183330285Y-113000714D01*
X183258856Y-113072143D01*
X183115999Y-113143571D01*
X182830285Y-113143571D01*
X182687428Y-113072143D01*
X184258857Y-113143571D02*
X184115999Y-113072143D01*
X184044571Y-113000714D01*
X183973142Y-112857857D01*
X183973142Y-112429286D01*
X184044571Y-112286429D01*
X184115999Y-112215000D01*
X184258857Y-112143571D01*
X184473142Y-112143571D01*
X184615999Y-112215000D01*
X184687428Y-112286429D01*
X184758857Y-112429286D01*
X184758857Y-112857857D01*
X184687428Y-113000714D01*
X184615999Y-113072143D01*
X184473142Y-113143571D01*
X184258857Y-113143571D01*
X185401714Y-112143571D02*
X185401714Y-113143571D01*
X185401714Y-112286429D02*
X185473142Y-112215000D01*
X185616000Y-112143571D01*
X185830285Y-112143571D01*
X185973142Y-112215000D01*
X186044571Y-112357857D01*
X186044571Y-113143571D01*
X186687428Y-113072143D02*
X186830285Y-113143571D01*
X187116000Y-113143571D01*
X187258857Y-113072143D01*
X187330285Y-112929286D01*
X187330285Y-112857857D01*
X187258857Y-112715000D01*
X187116000Y-112643571D01*
X186901714Y-112643571D01*
X186758857Y-112572143D01*
X186687428Y-112429286D01*
X186687428Y-112357857D01*
X186758857Y-112215000D01*
X186901714Y-112143571D01*
X187116000Y-112143571D01*
X187258857Y-112215000D01*
X188544571Y-113072143D02*
X188401714Y-113143571D01*
X188116000Y-113143571D01*
X187973143Y-113072143D01*
X187901714Y-112929286D01*
X187901714Y-112357857D01*
X187973143Y-112215000D01*
X188116000Y-112143571D01*
X188401714Y-112143571D01*
X188544571Y-112215000D01*
X188616000Y-112357857D01*
X188616000Y-112500714D01*
X187901714Y-112643571D01*
X166330286Y-114543571D02*
X166687429Y-115543571D01*
X167044571Y-114543571D01*
X167901714Y-114043571D02*
X168044571Y-114043571D01*
X168187428Y-114115000D01*
X168258857Y-114186429D01*
X168330286Y-114329286D01*
X168401714Y-114615000D01*
X168401714Y-114972143D01*
X168330286Y-115257857D01*
X168258857Y-115400714D01*
X168187428Y-115472143D01*
X168044571Y-115543571D01*
X167901714Y-115543571D01*
X167758857Y-115472143D01*
X167687428Y-115400714D01*
X167616000Y-115257857D01*
X167544571Y-114972143D01*
X167544571Y-114615000D01*
X167616000Y-114329286D01*
X167687428Y-114186429D01*
X167758857Y-114115000D01*
X167901714Y-114043571D01*
X169044571Y-115400714D02*
X169115999Y-115472143D01*
X169044571Y-115543571D01*
X168973142Y-115472143D01*
X169044571Y-115400714D01*
X169044571Y-115543571D01*
X170544571Y-115543571D02*
X169687428Y-115543571D01*
X170116000Y-115543571D02*
X170116000Y-114043571D01*
X169973143Y-114257857D01*
X169830285Y-114400714D01*
X169687428Y-114472143D01*
D12*
X154871000Y-110813000D02*
X155196000Y-110813000D01*
X154871000Y-103563000D02*
X155196000Y-103563000D01*
X162121000Y-103563000D02*
X161796000Y-103563000D01*
X162121000Y-110813000D02*
X161796000Y-110813000D01*
X154871000Y-110813000D02*
X154871000Y-110488000D01*
X162121000Y-110813000D02*
X162121000Y-110488000D01*
X162121000Y-103563000D02*
X162121000Y-103888000D01*
X154871000Y-103563000D02*
X154871000Y-103888000D01*
X155196000Y-110813000D02*
X155196000Y-112238000D01*
X149832000Y-101600000D02*
G75*
G03X149832000Y-101600000I-1750000J0D01*
G01*
X151082000Y-98600000D02*
X151082000Y-104600000D01*
X151082000Y-104600000D02*
X145082000Y-104600000D01*
X145082000Y-104600000D02*
X145082000Y-98600000D01*
X151082000Y-98600000D02*
X145082000Y-98600000D01*
X136370000Y-112014000D02*
G75*
G03X136370000Y-112014000I-1750000J0D01*
G01*
X137620000Y-109014000D02*
X137620000Y-115014000D01*
X137620000Y-115014000D02*
X131620000Y-115014000D01*
X131620000Y-115014000D02*
X131620000Y-109014000D01*
X137620000Y-109014000D02*
X131620000Y-109014000D01*
X140898000Y-104689000D02*
X140898000Y-109687000D01*
X141038000Y-104697000D02*
X141038000Y-109679000D01*
X141178000Y-104713000D02*
X141178000Y-107093000D01*
X141178000Y-107283000D02*
X141178000Y-109663000D01*
X141318000Y-104737000D02*
X141318000Y-106698000D01*
X141318000Y-107678000D02*
X141318000Y-109639000D01*
X141458000Y-104770000D02*
X141458000Y-106531000D01*
X141458000Y-107845000D02*
X141458000Y-109606000D01*
X141598000Y-104811000D02*
X141598000Y-106424000D01*
X141598000Y-107952000D02*
X141598000Y-109565000D01*
X141738000Y-104861000D02*
X141738000Y-106353000D01*
X141738000Y-108023000D02*
X141738000Y-109515000D01*
X141878000Y-104922000D02*
X141878000Y-106309000D01*
X141878000Y-108067000D02*
X141878000Y-109454000D01*
X142018000Y-104992000D02*
X142018000Y-106290000D01*
X142018000Y-108086000D02*
X142018000Y-109384000D01*
X142158000Y-105074000D02*
X142158000Y-106292000D01*
X142158000Y-108084000D02*
X142158000Y-109302000D01*
X142298000Y-105169000D02*
X142298000Y-106317000D01*
X142298000Y-108059000D02*
X142298000Y-109207000D01*
X142438000Y-105280000D02*
X142438000Y-106365000D01*
X142438000Y-108011000D02*
X142438000Y-109096000D01*
X142578000Y-105408000D02*
X142578000Y-106443000D01*
X142578000Y-107933000D02*
X142578000Y-108968000D01*
X142718000Y-105557000D02*
X142718000Y-106560000D01*
X142718000Y-107816000D02*
X142718000Y-108819000D01*
X142858000Y-105736000D02*
X142858000Y-106748000D01*
X142858000Y-107628000D02*
X142858000Y-108640000D01*
X142998000Y-105955000D02*
X142998000Y-108421000D01*
X143138000Y-106244000D02*
X143138000Y-108132000D01*
X143278000Y-106716000D02*
X143278000Y-107660000D01*
X142973000Y-107188000D02*
G75*
G03X142973000Y-107188000I-900000J0D01*
G01*
X143360500Y-107188000D02*
G75*
G03X143360500Y-107188000I-2537500J0D01*
G01*
X147773000Y-110700000D02*
X147773000Y-110900000D01*
X147773000Y-113294000D02*
X147773000Y-113114000D01*
X144545256Y-112983643D02*
G75*
G03X147773000Y-113300000I1727744J1003643D01*
G01*
X145220994Y-113113068D02*
G75*
G03X147324000Y-113114000I1052006J1133068D01*
G01*
X147760220Y-110673274D02*
G75*
G03X144523000Y-111020000I-1497220J-1306726D01*
G01*
X147286889Y-110900747D02*
G75*
G03X145239000Y-110920000I-1013889J-1079253D01*
G01*
X136144000Y-99822000D02*
X141224000Y-99822000D01*
X141224000Y-99822000D02*
X141224000Y-102362000D01*
X141224000Y-102362000D02*
X136144000Y-102362000D01*
X136144000Y-102362000D02*
X136144000Y-99822000D01*
X136144000Y-96139000D02*
X141224000Y-96139000D01*
X141224000Y-96139000D02*
X141224000Y-98679000D01*
X141224000Y-98679000D02*
X136144000Y-98679000D01*
X136144000Y-98679000D02*
X136144000Y-96139000D01*
X148844000Y-117475000D02*
X143764000Y-117475000D01*
X143764000Y-117475000D02*
X143764000Y-114935000D01*
X143764000Y-114935000D02*
X148844000Y-114935000D01*
X148844000Y-114935000D02*
X148844000Y-117475000D01*
X155456000Y-113812000D02*
X161456000Y-113812000D01*
X161456000Y-116312000D02*
X155456000Y-116312000D01*
X158488000Y-100183000D02*
X152488000Y-100183000D01*
X152488000Y-97683000D02*
X158488000Y-97683000D01*
X166108000Y-100183000D02*
X160108000Y-100183000D01*
X160108000Y-97683000D02*
X166108000Y-97683000D01*
X165298381Y-108418190D02*
X164298381Y-108418190D01*
X165203143Y-107370571D02*
X165250762Y-107418190D01*
X165298381Y-107561047D01*
X165298381Y-107656285D01*
X165250762Y-107799143D01*
X165155524Y-107894381D01*
X165060286Y-107942000D01*
X164869810Y-107989619D01*
X164726952Y-107989619D01*
X164536476Y-107942000D01*
X164441238Y-107894381D01*
X164346000Y-107799143D01*
X164298381Y-107656285D01*
X164298381Y-107561047D01*
X164346000Y-107418190D01*
X164393619Y-107370571D01*
X165298381Y-106418190D02*
X165298381Y-106989619D01*
X165298381Y-106703905D02*
X164298381Y-106703905D01*
X164441238Y-106799143D01*
X164536476Y-106894381D01*
X164584095Y-106989619D01*
X152550762Y-103060333D02*
X152598381Y-102917476D01*
X152598381Y-102679380D01*
X152550762Y-102584142D01*
X152503143Y-102536523D01*
X152407905Y-102488904D01*
X152312667Y-102488904D01*
X152217429Y-102536523D01*
X152169810Y-102584142D01*
X152122190Y-102679380D01*
X152074571Y-102869857D01*
X152026952Y-102965095D01*
X151979333Y-103012714D01*
X151884095Y-103060333D01*
X151788857Y-103060333D01*
X151693619Y-103012714D01*
X151646000Y-102965095D01*
X151598381Y-102869857D01*
X151598381Y-102631761D01*
X151646000Y-102488904D01*
X151598381Y-102155571D02*
X152598381Y-101917476D01*
X151884095Y-101726999D01*
X152598381Y-101536523D01*
X151598381Y-101298428D01*
X152598381Y-100393666D02*
X152598381Y-100965095D01*
X152598381Y-100679381D02*
X151598381Y-100679381D01*
X151741238Y-100774619D01*
X151836476Y-100869857D01*
X151884095Y-100965095D01*
X139088762Y-113601333D02*
X139136381Y-113458476D01*
X139136381Y-113220380D01*
X139088762Y-113125142D01*
X139041143Y-113077523D01*
X138945905Y-113029904D01*
X138850667Y-113029904D01*
X138755429Y-113077523D01*
X138707810Y-113125142D01*
X138660190Y-113220380D01*
X138612571Y-113410857D01*
X138564952Y-113506095D01*
X138517333Y-113553714D01*
X138422095Y-113601333D01*
X138326857Y-113601333D01*
X138231619Y-113553714D01*
X138184000Y-113506095D01*
X138136381Y-113410857D01*
X138136381Y-113172761D01*
X138184000Y-113029904D01*
X138136381Y-112696571D02*
X139136381Y-112458476D01*
X138422095Y-112267999D01*
X139136381Y-112077523D01*
X138136381Y-111839428D01*
X138231619Y-111506095D02*
X138184000Y-111458476D01*
X138136381Y-111363238D01*
X138136381Y-111125142D01*
X138184000Y-111029904D01*
X138231619Y-110982285D01*
X138326857Y-110934666D01*
X138422095Y-110934666D01*
X138564952Y-110982285D01*
X139136381Y-111553714D01*
X139136381Y-110934666D01*
X136866334Y-105513143D02*
X136818715Y-105560762D01*
X136675858Y-105608381D01*
X136580620Y-105608381D01*
X136437762Y-105560762D01*
X136342524Y-105465524D01*
X136294905Y-105370286D01*
X136247286Y-105179810D01*
X136247286Y-105036952D01*
X136294905Y-104846476D01*
X136342524Y-104751238D01*
X136437762Y-104656000D01*
X136580620Y-104608381D01*
X136675858Y-104608381D01*
X136818715Y-104656000D01*
X136866334Y-104703619D01*
X137723477Y-104941714D02*
X137723477Y-105608381D01*
X137485381Y-104560762D02*
X137247286Y-105275048D01*
X137866334Y-105275048D01*
X145565905Y-109164381D02*
X145565905Y-108164381D01*
X145804000Y-108164381D01*
X145946858Y-108212000D01*
X146042096Y-108307238D01*
X146089715Y-108402476D01*
X146137334Y-108592952D01*
X146137334Y-108735810D01*
X146089715Y-108926286D01*
X146042096Y-109021524D01*
X145946858Y-109116762D01*
X145804000Y-109164381D01*
X145565905Y-109164381D01*
X147089715Y-109164381D02*
X146518286Y-109164381D01*
X146804000Y-109164381D02*
X146804000Y-108164381D01*
X146708762Y-108307238D01*
X146613524Y-108402476D01*
X146518286Y-108450095D01*
X149217095Y-112466381D02*
X149217095Y-111466381D01*
X149788524Y-112466381D02*
X149359952Y-111894952D01*
X149788524Y-111466381D02*
X149217095Y-112037810D01*
X131913334Y-101544381D02*
X131580000Y-101068190D01*
X131341905Y-101544381D02*
X131341905Y-100544381D01*
X131722858Y-100544381D01*
X131818096Y-100592000D01*
X131865715Y-100639619D01*
X131913334Y-100734857D01*
X131913334Y-100877714D01*
X131865715Y-100972952D01*
X131818096Y-101020571D01*
X131722858Y-101068190D01*
X131341905Y-101068190D01*
X132865715Y-101544381D02*
X132294286Y-101544381D01*
X132580000Y-101544381D02*
X132580000Y-100544381D01*
X132484762Y-100687238D01*
X132389524Y-100782476D01*
X132294286Y-100830095D01*
X144740334Y-97226381D02*
X144407000Y-96750190D01*
X144168905Y-97226381D02*
X144168905Y-96226381D01*
X144549858Y-96226381D01*
X144645096Y-96274000D01*
X144692715Y-96321619D01*
X144740334Y-96416857D01*
X144740334Y-96559714D01*
X144692715Y-96654952D01*
X144645096Y-96702571D01*
X144549858Y-96750190D01*
X144168905Y-96750190D01*
X145121286Y-96321619D02*
X145168905Y-96274000D01*
X145264143Y-96226381D01*
X145502239Y-96226381D01*
X145597477Y-96274000D01*
X145645096Y-96321619D01*
X145692715Y-96416857D01*
X145692715Y-96512095D01*
X145645096Y-96654952D01*
X145073667Y-97226381D01*
X145692715Y-97226381D01*
X139787334Y-116784381D02*
X139454000Y-116308190D01*
X139215905Y-116784381D02*
X139215905Y-115784381D01*
X139596858Y-115784381D01*
X139692096Y-115832000D01*
X139739715Y-115879619D01*
X139787334Y-115974857D01*
X139787334Y-116117714D01*
X139739715Y-116212952D01*
X139692096Y-116260571D01*
X139596858Y-116308190D01*
X139215905Y-116308190D01*
X140120667Y-115784381D02*
X140739715Y-115784381D01*
X140406381Y-116165333D01*
X140549239Y-116165333D01*
X140644477Y-116212952D01*
X140692096Y-116260571D01*
X140739715Y-116355810D01*
X140739715Y-116593905D01*
X140692096Y-116689143D01*
X140644477Y-116736762D01*
X140549239Y-116784381D01*
X140263524Y-116784381D01*
X140168286Y-116736762D01*
X140120667Y-116689143D01*
X158202334Y-117578143D02*
X158154715Y-117625762D01*
X158011858Y-117673381D01*
X157916620Y-117673381D01*
X157773762Y-117625762D01*
X157678524Y-117530524D01*
X157630905Y-117435286D01*
X157583286Y-117244810D01*
X157583286Y-117101952D01*
X157630905Y-116911476D01*
X157678524Y-116816238D01*
X157773762Y-116721000D01*
X157916620Y-116673381D01*
X158011858Y-116673381D01*
X158154715Y-116721000D01*
X158202334Y-116768619D01*
X159154715Y-117673381D02*
X158583286Y-117673381D01*
X158869000Y-117673381D02*
X158869000Y-116673381D01*
X158773762Y-116816238D01*
X158678524Y-116911476D01*
X158583286Y-116959095D01*
X155027334Y-97004143D02*
X154979715Y-97051762D01*
X154836858Y-97099381D01*
X154741620Y-97099381D01*
X154598762Y-97051762D01*
X154503524Y-96956524D01*
X154455905Y-96861286D01*
X154408286Y-96670810D01*
X154408286Y-96527952D01*
X154455905Y-96337476D01*
X154503524Y-96242238D01*
X154598762Y-96147000D01*
X154741620Y-96099381D01*
X154836858Y-96099381D01*
X154979715Y-96147000D01*
X155027334Y-96194619D01*
X155408286Y-96194619D02*
X155455905Y-96147000D01*
X155551143Y-96099381D01*
X155789239Y-96099381D01*
X155884477Y-96147000D01*
X155932096Y-96194619D01*
X155979715Y-96289857D01*
X155979715Y-96385095D01*
X155932096Y-96527952D01*
X155360667Y-97099381D01*
X155979715Y-97099381D01*
X162647334Y-97004143D02*
X162599715Y-97051762D01*
X162456858Y-97099381D01*
X162361620Y-97099381D01*
X162218762Y-97051762D01*
X162123524Y-96956524D01*
X162075905Y-96861286D01*
X162028286Y-96670810D01*
X162028286Y-96527952D01*
X162075905Y-96337476D01*
X162123524Y-96242238D01*
X162218762Y-96147000D01*
X162361620Y-96099381D01*
X162456858Y-96099381D01*
X162599715Y-96147000D01*
X162647334Y-96194619D01*
X162980667Y-96099381D02*
X163599715Y-96099381D01*
X163266381Y-96480333D01*
X163409239Y-96480333D01*
X163504477Y-96527952D01*
X163552096Y-96575571D01*
X163599715Y-96670810D01*
X163599715Y-96908905D01*
X163552096Y-97004143D01*
X163504477Y-97051762D01*
X163409239Y-97099381D01*
X163123524Y-97099381D01*
X163028286Y-97051762D01*
X162980667Y-97004143D01*
M02*
