G04 #@! TF.FileFunction,Copper,L1,Top,Signal*
%FSLAX46Y46*%
G04 Gerber Fmt 4.6, Leading zero omitted, Abs format (unit mm)*
G04 Created by KiCad (PCBNEW 4.0.2-4+6225~38~ubuntu14.04.1-stable) date Sat 05 Mar 2016 20:24:40 CET*
%MOMM*%
G01*
G04 APERTURE LIST*
%ADD10C,0.100000*%
%ADD11C,1.524000*%
%ADD12R,0.550000X1.600000*%
%ADD13R,1.600000X0.550000*%
%ADD14R,1.727200X1.727200*%
%ADD15O,1.727200X1.727200*%
%ADD16C,1.397000*%
%ADD17R,1.300000X1.300000*%
%ADD18C,1.300000*%
%ADD19R,2.000000X2.000000*%
%ADD20C,2.000000*%
%ADD21C,1.998980*%
%ADD22R,1.400000X1.400000*%
%ADD23C,1.400000*%
%ADD24C,0.600000*%
%ADD25C,0.250000*%
%ADD26C,0.254000*%
G04 APERTURE END LIST*
D10*
D11*
X149501000Y-107188000D03*
X129501000Y-107188000D03*
D12*
X155696000Y-111438000D03*
X156496000Y-111438000D03*
X157296000Y-111438000D03*
X158096000Y-111438000D03*
X158896000Y-111438000D03*
X159696000Y-111438000D03*
X160496000Y-111438000D03*
X161296000Y-111438000D03*
D13*
X162746000Y-109988000D03*
X162746000Y-109188000D03*
X162746000Y-108388000D03*
X162746000Y-107588000D03*
X162746000Y-106788000D03*
X162746000Y-105988000D03*
X162746000Y-105188000D03*
X162746000Y-104388000D03*
D12*
X161296000Y-102938000D03*
X160496000Y-102938000D03*
X159696000Y-102938000D03*
X158896000Y-102938000D03*
X158096000Y-102938000D03*
X157296000Y-102938000D03*
X156496000Y-102938000D03*
X155696000Y-102938000D03*
D13*
X154246000Y-104388000D03*
X154246000Y-105188000D03*
X154246000Y-105988000D03*
X154246000Y-106788000D03*
X154246000Y-107588000D03*
X154246000Y-108388000D03*
X154246000Y-109188000D03*
X154246000Y-109988000D03*
D14*
X170688000Y-99568000D03*
D15*
X170688000Y-102108000D03*
X173228000Y-99568000D03*
X173228000Y-102108000D03*
X175768000Y-99568000D03*
X175768000Y-102108000D03*
D16*
X150322000Y-104810000D03*
X145842000Y-104810000D03*
X150322000Y-98390000D03*
X145842000Y-98390000D03*
X136860000Y-115224000D03*
X132380000Y-115224000D03*
X136860000Y-108804000D03*
X132380000Y-108804000D03*
D17*
X139573000Y-107188000D03*
D18*
X142073000Y-107188000D03*
D19*
X147574000Y-112014000D03*
D20*
X145034000Y-112014000D03*
D21*
X134874000Y-101092000D03*
X142494000Y-101092000D03*
X134874000Y-97409000D03*
X142494000Y-97409000D03*
X150114000Y-116205000D03*
X142494000Y-116205000D03*
D22*
X155956000Y-115062000D03*
D23*
X160956000Y-115062000D03*
D22*
X157988000Y-98933000D03*
D23*
X152988000Y-98933000D03*
D22*
X165608000Y-98933000D03*
D23*
X160608000Y-98933000D03*
D14*
X184150000Y-100711000D03*
D15*
X181610000Y-100711000D03*
X184150000Y-103251000D03*
X181610000Y-103251000D03*
X184150000Y-105791000D03*
X181610000Y-105791000D03*
X184150000Y-108331000D03*
X181610000Y-108331000D03*
D24*
X157734000Y-107061000D03*
X158750000Y-101092000D03*
X178181000Y-104013000D03*
X173488000Y-104388000D03*
X165803000Y-102938000D03*
X162941000Y-97155000D03*
X150114000Y-109728000D03*
X148844000Y-96266000D03*
X152654000Y-109982000D03*
D25*
X159696000Y-111438000D02*
X159696000Y-112452000D01*
X159696000Y-112452000D02*
X160528000Y-113284000D01*
X158096000Y-111438000D02*
X158096000Y-112922000D01*
X158096000Y-112922000D02*
X155956000Y-115062000D01*
X160496000Y-102938000D02*
X160496000Y-101441000D01*
X160496000Y-101441000D02*
X157988000Y-98933000D01*
X157296000Y-111438000D02*
X157296000Y-107499000D01*
X158096000Y-106699000D02*
X157734000Y-107061000D01*
X158096000Y-106699000D02*
X158096000Y-102938000D01*
X157296000Y-107499000D02*
X157734000Y-107061000D01*
X158896000Y-111438000D02*
X158896000Y-113002000D01*
X158896000Y-113002000D02*
X160956000Y-115062000D01*
X158896000Y-101238000D02*
X158896000Y-102938000D01*
X158750000Y-101092000D02*
X158896000Y-101238000D01*
X142494000Y-116205000D02*
X142494000Y-114554000D01*
X142494000Y-114554000D02*
X145034000Y-112014000D01*
X185801000Y-104902000D02*
X184150000Y-103251000D01*
X185801000Y-109855000D02*
X185801000Y-104902000D01*
X185166000Y-110490000D02*
X185801000Y-109855000D01*
X180467000Y-110490000D02*
X185166000Y-110490000D01*
X179578000Y-109601000D02*
X180467000Y-110490000D01*
X179578000Y-107315000D02*
X179578000Y-109601000D01*
X162746000Y-106788000D02*
X179051000Y-106788000D01*
X179051000Y-106788000D02*
X179578000Y-107315000D01*
X162746000Y-105988000D02*
X177476000Y-105988000D01*
X180213000Y-103251000D02*
X181610000Y-103251000D01*
X177476000Y-105988000D02*
X180213000Y-103251000D01*
X182175000Y-105988000D02*
X182372000Y-105791000D01*
X162746000Y-105188000D02*
X177006000Y-105188000D01*
X177006000Y-105188000D02*
X178181000Y-104013000D01*
X162746000Y-104388000D02*
X173488000Y-104388000D01*
X173488000Y-104388000D02*
X175768000Y-102108000D01*
X161296000Y-102938000D02*
X165803000Y-102938000D01*
X173228000Y-102108000D02*
X173228000Y-103505000D01*
X166751000Y-103886000D02*
X165803000Y-102938000D01*
X172847000Y-103886000D02*
X166751000Y-103886000D01*
X173228000Y-103505000D02*
X172847000Y-103886000D01*
X151257000Y-102870000D02*
X151384000Y-102870000D01*
X151384000Y-102870000D02*
X157099000Y-97155000D01*
X157099000Y-97155000D02*
X162941000Y-97155000D01*
X154246000Y-107588000D02*
X152927000Y-107588000D01*
X152146000Y-102997000D02*
X151384000Y-102997000D01*
X152781000Y-103632000D02*
X152146000Y-102997000D01*
X152781000Y-107442000D02*
X152781000Y-103632000D01*
X152927000Y-107588000D02*
X152781000Y-107442000D01*
X151384000Y-102870000D02*
X151384000Y-102997000D01*
X149479000Y-101092000D02*
X142494000Y-101092000D01*
X151384000Y-102997000D02*
X151257000Y-102870000D01*
X151257000Y-102870000D02*
X149479000Y-101092000D01*
X154246000Y-108388000D02*
X151581000Y-108388000D01*
X150241000Y-109728000D02*
X150114000Y-109728000D01*
X151581000Y-108388000D02*
X150241000Y-109728000D01*
X148844000Y-96266000D02*
X150322000Y-97744000D01*
X150322000Y-97744000D02*
X150322000Y-98390000D01*
X154246000Y-109988000D02*
X152660000Y-109988000D01*
X152660000Y-109988000D02*
X152654000Y-109982000D01*
D26*
G36*
X133489154Y-96481927D02*
X133239794Y-97082453D01*
X133239226Y-97732694D01*
X133487538Y-98333655D01*
X133946927Y-98793846D01*
X134547453Y-99043206D01*
X135197694Y-99043774D01*
X135798655Y-98795462D01*
X136258846Y-98336073D01*
X136508206Y-97735547D01*
X136508774Y-97085306D01*
X136260462Y-96484345D01*
X135990588Y-96214000D01*
X141377549Y-96214000D01*
X141109154Y-96481927D01*
X140859794Y-97082453D01*
X140859226Y-97732694D01*
X141107538Y-98333655D01*
X141566927Y-98793846D01*
X142167453Y-99043206D01*
X142817694Y-99043774D01*
X143418655Y-98795462D01*
X143878846Y-98336073D01*
X143936394Y-98197480D01*
X144496073Y-98197480D01*
X144524852Y-98727199D01*
X144672200Y-99082929D01*
X144907812Y-99144583D01*
X145662395Y-98390000D01*
X146021605Y-98390000D01*
X146776188Y-99144583D01*
X147011800Y-99082929D01*
X147187927Y-98582520D01*
X147159148Y-98052801D01*
X147011800Y-97697071D01*
X146776188Y-97635417D01*
X146021605Y-98390000D01*
X145662395Y-98390000D01*
X144907812Y-97635417D01*
X144672200Y-97697071D01*
X144496073Y-98197480D01*
X143936394Y-98197480D01*
X144128206Y-97735547D01*
X144128450Y-97455812D01*
X145087417Y-97455812D01*
X145842000Y-98210395D01*
X146596583Y-97455812D01*
X146534929Y-97220200D01*
X146034520Y-97044073D01*
X145504801Y-97072852D01*
X145149071Y-97220200D01*
X145087417Y-97455812D01*
X144128450Y-97455812D01*
X144128774Y-97085306D01*
X143880462Y-96484345D01*
X143610588Y-96214000D01*
X147909045Y-96214000D01*
X147908838Y-96451167D01*
X148050883Y-96794943D01*
X148313673Y-97058192D01*
X148657201Y-97200838D01*
X148704077Y-97200879D01*
X149175940Y-97672742D01*
X148988732Y-98123587D01*
X148988269Y-98654086D01*
X149190854Y-99144380D01*
X149565647Y-99519827D01*
X150055587Y-99723268D01*
X150586086Y-99723731D01*
X151076380Y-99521146D01*
X151451827Y-99146353D01*
X151655268Y-98656413D01*
X151655731Y-98125914D01*
X151453146Y-97635620D01*
X151078353Y-97260173D01*
X150795541Y-97142739D01*
X149866802Y-96214000D01*
X178013908Y-96214000D01*
X180091954Y-98292046D01*
X180322295Y-98445954D01*
X180594000Y-98500000D01*
X190552000Y-98500000D01*
X190552000Y-103938000D01*
X189992000Y-103938000D01*
X189923416Y-103951642D01*
X188978672Y-104125653D01*
X188828746Y-104187755D01*
X188722731Y-104231668D01*
X187981099Y-104727211D01*
X187785210Y-104923099D01*
X187289669Y-105664730D01*
X187289668Y-105664731D01*
X187183653Y-105920672D01*
X187009642Y-106795486D01*
X187009643Y-106934000D01*
X187009642Y-107072514D01*
X187183653Y-107947328D01*
X187252277Y-108113000D01*
X187289668Y-108203269D01*
X187785210Y-108944901D01*
X187887148Y-109046838D01*
X187981099Y-109140789D01*
X188722731Y-109636332D01*
X188828746Y-109680245D01*
X188978672Y-109742347D01*
X189111246Y-109768717D01*
X189113006Y-109777410D01*
X189141447Y-109819035D01*
X189207282Y-109852951D01*
X190502283Y-110088406D01*
X190552000Y-112375387D01*
X190552000Y-115368000D01*
X180594000Y-115368000D01*
X180322295Y-115422046D01*
X180091954Y-115575954D01*
X178013908Y-117654000D01*
X150887301Y-117654000D01*
X151038655Y-117591462D01*
X151498846Y-117132073D01*
X151748206Y-116531547D01*
X151748774Y-115881306D01*
X151528314Y-115347750D01*
X154621000Y-115347750D01*
X154621000Y-115888310D01*
X154717673Y-116121699D01*
X154896302Y-116300327D01*
X155129691Y-116397000D01*
X155670250Y-116397000D01*
X155829000Y-116238250D01*
X155829000Y-115189000D01*
X156083000Y-115189000D01*
X156083000Y-116238250D01*
X156241750Y-116397000D01*
X156782309Y-116397000D01*
X157015698Y-116300327D01*
X157194327Y-116121699D01*
X157291000Y-115888310D01*
X157291000Y-115347750D01*
X157132250Y-115189000D01*
X156083000Y-115189000D01*
X155829000Y-115189000D01*
X154779750Y-115189000D01*
X154621000Y-115347750D01*
X151528314Y-115347750D01*
X151500462Y-115280345D01*
X151041073Y-114820154D01*
X150440547Y-114570794D01*
X149790306Y-114570226D01*
X149189345Y-114818538D01*
X148729154Y-115277927D01*
X148479794Y-115878453D01*
X148479226Y-116528694D01*
X148727538Y-117129655D01*
X149186927Y-117589846D01*
X149341427Y-117654000D01*
X143267301Y-117654000D01*
X143418655Y-117591462D01*
X143878846Y-117132073D01*
X144128206Y-116531547D01*
X144128774Y-115881306D01*
X143880462Y-115280345D01*
X143421073Y-114820154D01*
X143337394Y-114785408D01*
X143887112Y-114235690D01*
X154621000Y-114235690D01*
X154621000Y-114776250D01*
X154779750Y-114935000D01*
X155829000Y-114935000D01*
X155829000Y-113885750D01*
X156083000Y-113885750D01*
X156083000Y-114935000D01*
X157132250Y-114935000D01*
X157291000Y-114776250D01*
X157291000Y-114235690D01*
X157194327Y-114002301D01*
X157015698Y-113823673D01*
X156782309Y-113727000D01*
X156241750Y-113727000D01*
X156083000Y-113885750D01*
X155829000Y-113885750D01*
X155670250Y-113727000D01*
X155129691Y-113727000D01*
X154896302Y-113823673D01*
X154717673Y-114002301D01*
X154621000Y-114235690D01*
X143887112Y-114235690D01*
X144542527Y-113580275D01*
X144707352Y-113648716D01*
X145357795Y-113649284D01*
X145958943Y-113400894D01*
X146025574Y-113334379D01*
X146109910Y-113465441D01*
X146322110Y-113610431D01*
X146574000Y-113661440D01*
X148574000Y-113661440D01*
X148809317Y-113617162D01*
X149025441Y-113478090D01*
X149170431Y-113265890D01*
X149221440Y-113014000D01*
X149221440Y-111014000D01*
X149177162Y-110778683D01*
X149038090Y-110562559D01*
X148825890Y-110417569D01*
X148574000Y-110366560D01*
X146574000Y-110366560D01*
X146338683Y-110410838D01*
X146122559Y-110549910D01*
X146025090Y-110692561D01*
X145961363Y-110628722D01*
X145360648Y-110379284D01*
X144710205Y-110378716D01*
X144109057Y-110627106D01*
X143648722Y-111086637D01*
X143399284Y-111687352D01*
X143398716Y-112337795D01*
X143467919Y-112505279D01*
X141956599Y-114016599D01*
X141791852Y-114263161D01*
X141734000Y-114554000D01*
X141734000Y-114750504D01*
X141569345Y-114818538D01*
X141109154Y-115277927D01*
X140859794Y-115878453D01*
X140859226Y-116528694D01*
X141107538Y-117129655D01*
X141566927Y-117589846D01*
X141721427Y-117654000D01*
X128472000Y-117654000D01*
X128472000Y-115488086D01*
X131046269Y-115488086D01*
X131248854Y-115978380D01*
X131623647Y-116353827D01*
X132113587Y-116557268D01*
X132644086Y-116557731D01*
X133134380Y-116355146D01*
X133509827Y-115980353D01*
X133713268Y-115490413D01*
X133713270Y-115488086D01*
X135526269Y-115488086D01*
X135728854Y-115978380D01*
X136103647Y-116353827D01*
X136593587Y-116557268D01*
X137124086Y-116557731D01*
X137614380Y-116355146D01*
X137989827Y-115980353D01*
X138193268Y-115490413D01*
X138193731Y-114959914D01*
X137991146Y-114469620D01*
X137616353Y-114094173D01*
X137126413Y-113890732D01*
X136595914Y-113890269D01*
X136105620Y-114092854D01*
X135730173Y-114467647D01*
X135526732Y-114957587D01*
X135526269Y-115488086D01*
X133713270Y-115488086D01*
X133713731Y-114959914D01*
X133511146Y-114469620D01*
X133136353Y-114094173D01*
X132646413Y-113890732D01*
X132115914Y-113890269D01*
X131625620Y-114092854D01*
X131250173Y-114467647D01*
X131046732Y-114957587D01*
X131046269Y-115488086D01*
X128472000Y-115488086D01*
X128472000Y-109068086D01*
X131046269Y-109068086D01*
X131248854Y-109558380D01*
X131623647Y-109933827D01*
X132113587Y-110137268D01*
X132644086Y-110137731D01*
X133134380Y-109935146D01*
X133509827Y-109560353D01*
X133713268Y-109070413D01*
X133713270Y-109068086D01*
X135526269Y-109068086D01*
X135728854Y-109558380D01*
X136103647Y-109933827D01*
X136593587Y-110137268D01*
X137124086Y-110137731D01*
X137614380Y-109935146D01*
X137989827Y-109560353D01*
X138193268Y-109070413D01*
X138193731Y-108539914D01*
X137991146Y-108049620D01*
X137616353Y-107674173D01*
X137133682Y-107473750D01*
X138288000Y-107473750D01*
X138288000Y-107964310D01*
X138384673Y-108197699D01*
X138563302Y-108376327D01*
X138796691Y-108473000D01*
X139287250Y-108473000D01*
X139446000Y-108314250D01*
X139446000Y-107315000D01*
X138446750Y-107315000D01*
X138288000Y-107473750D01*
X137133682Y-107473750D01*
X137126413Y-107470732D01*
X136595914Y-107470269D01*
X136105620Y-107672854D01*
X135730173Y-108047647D01*
X135526732Y-108537587D01*
X135526269Y-109068086D01*
X133713270Y-109068086D01*
X133713731Y-108539914D01*
X133511146Y-108049620D01*
X133136353Y-107674173D01*
X132646413Y-107470732D01*
X132115914Y-107470269D01*
X131625620Y-107672854D01*
X131250173Y-108047647D01*
X131046732Y-108537587D01*
X131046269Y-109068086D01*
X128472000Y-109068086D01*
X128472000Y-108168213D01*
X128700392Y-108168213D01*
X128769857Y-108410397D01*
X129293302Y-108597144D01*
X129848368Y-108569362D01*
X130232143Y-108410397D01*
X130301608Y-108168213D01*
X129501000Y-107367605D01*
X128700392Y-108168213D01*
X128472000Y-108168213D01*
X128472000Y-107974615D01*
X128520787Y-107988608D01*
X129321395Y-107188000D01*
X129680605Y-107188000D01*
X130481213Y-107988608D01*
X130723397Y-107919143D01*
X130910144Y-107395698D01*
X130882362Y-106840632D01*
X130723397Y-106456857D01*
X130565926Y-106411690D01*
X138288000Y-106411690D01*
X138288000Y-106902250D01*
X138446750Y-107061000D01*
X139446000Y-107061000D01*
X139446000Y-106061750D01*
X139700000Y-106061750D01*
X139700000Y-107061000D01*
X139720000Y-107061000D01*
X139720000Y-107315000D01*
X139700000Y-107315000D01*
X139700000Y-108314250D01*
X139858750Y-108473000D01*
X140349309Y-108473000D01*
X140582698Y-108376327D01*
X140761327Y-108197699D01*
X140858000Y-107964310D01*
X140858000Y-107612433D01*
X140982995Y-107914943D01*
X141344155Y-108276735D01*
X141816276Y-108472777D01*
X142327481Y-108473223D01*
X142799943Y-108278005D01*
X143161735Y-107916845D01*
X143357777Y-107444724D01*
X143358223Y-106933519D01*
X143163005Y-106461057D01*
X142801845Y-106099265D01*
X142329724Y-105903223D01*
X141818519Y-105902777D01*
X141346057Y-106097995D01*
X140984265Y-106459155D01*
X140858000Y-106763235D01*
X140858000Y-106411690D01*
X140761327Y-106178301D01*
X140582698Y-105999673D01*
X140349309Y-105903000D01*
X139858750Y-105903000D01*
X139700000Y-106061750D01*
X139446000Y-106061750D01*
X139287250Y-105903000D01*
X138796691Y-105903000D01*
X138563302Y-105999673D01*
X138384673Y-106178301D01*
X138288000Y-106411690D01*
X130565926Y-106411690D01*
X130481213Y-106387392D01*
X129680605Y-107188000D01*
X129321395Y-107188000D01*
X128520787Y-106387392D01*
X128472000Y-106401385D01*
X128472000Y-106207787D01*
X128700392Y-106207787D01*
X129501000Y-107008395D01*
X130301608Y-106207787D01*
X130232143Y-105965603D01*
X129708698Y-105778856D01*
X129153632Y-105806638D01*
X128769857Y-105965603D01*
X128700392Y-106207787D01*
X128472000Y-106207787D01*
X128472000Y-105744188D01*
X145087417Y-105744188D01*
X145149071Y-105979800D01*
X145649480Y-106155927D01*
X146179199Y-106127148D01*
X146534929Y-105979800D01*
X146596583Y-105744188D01*
X145842000Y-104989605D01*
X145087417Y-105744188D01*
X128472000Y-105744188D01*
X128472000Y-104617480D01*
X144496073Y-104617480D01*
X144524852Y-105147199D01*
X144672200Y-105502929D01*
X144907812Y-105564583D01*
X145662395Y-104810000D01*
X146021605Y-104810000D01*
X146776188Y-105564583D01*
X147011800Y-105502929D01*
X147187927Y-105002520D01*
X147159148Y-104472801D01*
X147011800Y-104117071D01*
X146776188Y-104055417D01*
X146021605Y-104810000D01*
X145662395Y-104810000D01*
X144907812Y-104055417D01*
X144672200Y-104117071D01*
X144496073Y-104617480D01*
X128472000Y-104617480D01*
X128472000Y-103875812D01*
X145087417Y-103875812D01*
X145842000Y-104630395D01*
X146596583Y-103875812D01*
X146534929Y-103640200D01*
X146034520Y-103464073D01*
X145504801Y-103492852D01*
X145149071Y-103640200D01*
X145087417Y-103875812D01*
X128472000Y-103875812D01*
X128472000Y-102244163D01*
X133901443Y-102244163D01*
X134000042Y-102510965D01*
X134609582Y-102737401D01*
X135259377Y-102713341D01*
X135747958Y-102510965D01*
X135846557Y-102244163D01*
X134874000Y-101271605D01*
X133901443Y-102244163D01*
X128472000Y-102244163D01*
X128472000Y-100838000D01*
X132588000Y-100838000D01*
X132637410Y-100827994D01*
X132638012Y-100827582D01*
X133228599Y-100827582D01*
X133252659Y-101477377D01*
X133455035Y-101965958D01*
X133721837Y-102064557D01*
X134694395Y-101092000D01*
X135053605Y-101092000D01*
X136026163Y-102064557D01*
X136292965Y-101965958D01*
X136497380Y-101415694D01*
X140859226Y-101415694D01*
X141107538Y-102016655D01*
X141566927Y-102476846D01*
X142167453Y-102726206D01*
X142817694Y-102726774D01*
X143418655Y-102478462D01*
X143878846Y-102019073D01*
X143948221Y-101852000D01*
X149164198Y-101852000D01*
X150846599Y-103534401D01*
X151042453Y-103665266D01*
X150588413Y-103476732D01*
X150057914Y-103476269D01*
X149567620Y-103678854D01*
X149192173Y-104053647D01*
X148988732Y-104543587D01*
X148988269Y-105074086D01*
X149190854Y-105564380D01*
X149417006Y-105790926D01*
X149224339Y-105790758D01*
X148710697Y-106002990D01*
X148317371Y-106395630D01*
X148104243Y-106908900D01*
X148103758Y-107464661D01*
X148315990Y-107978303D01*
X148708630Y-108371629D01*
X149221900Y-108584757D01*
X149777661Y-108585242D01*
X150291303Y-108373010D01*
X150684629Y-107980370D01*
X150897757Y-107467100D01*
X150898242Y-106911339D01*
X150686010Y-106397697D01*
X150432353Y-106143597D01*
X150586086Y-106143731D01*
X151076380Y-105941146D01*
X151451827Y-105566353D01*
X151655268Y-105076413D01*
X151655731Y-104545914D01*
X151453146Y-104055620D01*
X151098319Y-103700174D01*
X151384000Y-103757000D01*
X151831198Y-103757000D01*
X152021000Y-103946802D01*
X152021000Y-107442000D01*
X152057998Y-107628000D01*
X151581000Y-107628000D01*
X151290160Y-107685852D01*
X151043599Y-107850599D01*
X150101210Y-108792988D01*
X149928833Y-108792838D01*
X149585057Y-108934883D01*
X149321808Y-109197673D01*
X149179162Y-109541201D01*
X149178838Y-109913167D01*
X149320883Y-110256943D01*
X149583673Y-110520192D01*
X149927201Y-110662838D01*
X150299167Y-110663162D01*
X150642943Y-110521117D01*
X150906192Y-110258327D01*
X150991913Y-110051889D01*
X151895802Y-109148000D01*
X152224002Y-109148000D01*
X152125057Y-109188883D01*
X151861808Y-109451673D01*
X151719162Y-109795201D01*
X151718838Y-110167167D01*
X151860883Y-110510943D01*
X152123673Y-110774192D01*
X152467201Y-110916838D01*
X152839167Y-110917162D01*
X153113005Y-110804015D01*
X153194110Y-110859431D01*
X153446000Y-110910440D01*
X154773560Y-110910440D01*
X154773560Y-112238000D01*
X154817838Y-112473317D01*
X154956910Y-112689441D01*
X155169110Y-112834431D01*
X155421000Y-112885440D01*
X155971000Y-112885440D01*
X156100589Y-112861056D01*
X156221000Y-112885440D01*
X156771000Y-112885440D01*
X156900589Y-112861056D01*
X157021000Y-112885440D01*
X157571000Y-112885440D01*
X157676705Y-112865550D01*
X157694690Y-112873000D01*
X157810250Y-112873000D01*
X157906651Y-112776599D01*
X158022441Y-112702090D01*
X158095884Y-112594603D01*
X158136000Y-112656946D01*
X158136000Y-113002000D01*
X158193852Y-113292839D01*
X158358599Y-113539401D01*
X159621226Y-114802028D01*
X159620769Y-115326383D01*
X159823582Y-115817229D01*
X160198796Y-116193098D01*
X160689287Y-116396768D01*
X161220383Y-116397231D01*
X161711229Y-116194418D01*
X162087098Y-115819204D01*
X162290768Y-115328713D01*
X162291231Y-114797617D01*
X162088418Y-114306771D01*
X161713204Y-113930902D01*
X161222713Y-113727232D01*
X160695574Y-113726772D01*
X159823002Y-112854200D01*
X159823002Y-112734600D01*
X159887245Y-112778495D01*
X159981750Y-112873000D01*
X160097310Y-112873000D01*
X160117753Y-112864532D01*
X160221000Y-112885440D01*
X160771000Y-112885440D01*
X160900589Y-112861056D01*
X161021000Y-112885440D01*
X161571000Y-112885440D01*
X161806317Y-112841162D01*
X162022441Y-112702090D01*
X162167431Y-112489890D01*
X162218440Y-112238000D01*
X162218440Y-110910440D01*
X163546000Y-110910440D01*
X163781317Y-110866162D01*
X163997441Y-110727090D01*
X164142431Y-110514890D01*
X164193440Y-110263000D01*
X164193440Y-109713000D01*
X164169056Y-109583411D01*
X164193440Y-109463000D01*
X164193440Y-108913000D01*
X164169056Y-108783411D01*
X164193440Y-108663000D01*
X164193440Y-108113000D01*
X164169056Y-107983411D01*
X164193440Y-107863000D01*
X164193440Y-107548000D01*
X178736198Y-107548000D01*
X178818000Y-107629802D01*
X178818000Y-109601000D01*
X178875852Y-109891839D01*
X179040599Y-110138401D01*
X179929599Y-111027401D01*
X180176161Y-111192148D01*
X180467000Y-111250000D01*
X185166000Y-111250000D01*
X185456839Y-111192148D01*
X185703401Y-111027401D01*
X186338401Y-110392401D01*
X186503148Y-110145839D01*
X186561000Y-109855000D01*
X186561000Y-104902000D01*
X186503148Y-104611161D01*
X186338401Y-104364599D01*
X185602775Y-103628973D01*
X185677959Y-103251000D01*
X185563885Y-102677511D01*
X185239029Y-102191330D01*
X185225358Y-102182195D01*
X185248917Y-102177762D01*
X185465041Y-102038690D01*
X185610031Y-101826490D01*
X185661040Y-101574600D01*
X185661040Y-99847400D01*
X185616762Y-99612083D01*
X185477690Y-99395959D01*
X185265490Y-99250969D01*
X185013600Y-99199960D01*
X183286400Y-99199960D01*
X183051083Y-99244238D01*
X182834959Y-99383310D01*
X182689969Y-99595510D01*
X182670338Y-99692451D01*
X182498490Y-99504179D01*
X181969027Y-99256032D01*
X181737000Y-99376531D01*
X181737000Y-100584000D01*
X181757000Y-100584000D01*
X181757000Y-100838000D01*
X181737000Y-100838000D01*
X181737000Y-100858000D01*
X181483000Y-100858000D01*
X181483000Y-100838000D01*
X180276183Y-100838000D01*
X180155042Y-101070026D01*
X180327312Y-101485947D01*
X180721510Y-101917821D01*
X180844228Y-101975336D01*
X180520971Y-102191330D01*
X180320738Y-102491000D01*
X180213000Y-102491000D01*
X179922161Y-102548852D01*
X179675599Y-102713599D01*
X178939659Y-103449539D01*
X178711327Y-103220808D01*
X178367799Y-103078162D01*
X177995833Y-103077838D01*
X177652057Y-103219883D01*
X177388808Y-103482673D01*
X177246162Y-103826201D01*
X177246121Y-103873077D01*
X176691198Y-104428000D01*
X174522802Y-104428000D01*
X175390027Y-103560775D01*
X175768000Y-103635959D01*
X176341489Y-103521885D01*
X176827670Y-103197029D01*
X177152526Y-102710848D01*
X177266600Y-102137359D01*
X177266600Y-102078641D01*
X177152526Y-101505152D01*
X176827670Y-101018971D01*
X176556839Y-100838008D01*
X176974821Y-100456490D01*
X177023805Y-100351974D01*
X180155042Y-100351974D01*
X180276183Y-100584000D01*
X181483000Y-100584000D01*
X181483000Y-99376531D01*
X181250973Y-99256032D01*
X180721510Y-99504179D01*
X180327312Y-99936053D01*
X180155042Y-100351974D01*
X177023805Y-100351974D01*
X177222968Y-99927027D01*
X177102469Y-99695000D01*
X175895000Y-99695000D01*
X175895000Y-99715000D01*
X175641000Y-99715000D01*
X175641000Y-99695000D01*
X175621000Y-99695000D01*
X175621000Y-99441000D01*
X175641000Y-99441000D01*
X175641000Y-98234183D01*
X175895000Y-98234183D01*
X175895000Y-99441000D01*
X177102469Y-99441000D01*
X177222968Y-99208973D01*
X176974821Y-98679510D01*
X176542947Y-98285312D01*
X176127026Y-98113042D01*
X175895000Y-98234183D01*
X175641000Y-98234183D01*
X175408974Y-98113042D01*
X174993053Y-98285312D01*
X174561179Y-98679510D01*
X174503664Y-98802228D01*
X174287670Y-98478971D01*
X173801489Y-98154115D01*
X173228000Y-98040041D01*
X172654511Y-98154115D01*
X172168330Y-98478971D01*
X172159195Y-98492642D01*
X172154762Y-98469083D01*
X172015690Y-98252959D01*
X171803490Y-98107969D01*
X171551600Y-98056960D01*
X169824400Y-98056960D01*
X169589083Y-98101238D01*
X169372959Y-98240310D01*
X169227969Y-98452510D01*
X169176960Y-98704400D01*
X169176960Y-100431600D01*
X169221238Y-100666917D01*
X169360310Y-100883041D01*
X169572510Y-101028031D01*
X169616345Y-101036908D01*
X169303474Y-101505152D01*
X169189400Y-102078641D01*
X169189400Y-102137359D01*
X169303474Y-102710848D01*
X169580870Y-103126000D01*
X167065802Y-103126000D01*
X166738122Y-102798320D01*
X166738162Y-102752833D01*
X166596117Y-102409057D01*
X166333327Y-102145808D01*
X165989799Y-102003162D01*
X165617833Y-102002838D01*
X165274057Y-102144883D01*
X165240882Y-102178000D01*
X162218440Y-102178000D01*
X162218440Y-102138000D01*
X162174162Y-101902683D01*
X162035090Y-101686559D01*
X161822890Y-101541569D01*
X161571000Y-101490560D01*
X161021000Y-101490560D01*
X160915295Y-101510450D01*
X160897310Y-101503000D01*
X160781750Y-101503000D01*
X160685349Y-101599401D01*
X160569559Y-101673910D01*
X160496116Y-101781397D01*
X160435090Y-101686559D01*
X160304755Y-101597505D01*
X160210250Y-101503000D01*
X160094690Y-101503000D01*
X160074247Y-101511468D01*
X159971000Y-101490560D01*
X159656000Y-101490560D01*
X159656000Y-101348248D01*
X159684838Y-101278799D01*
X159685162Y-100906833D01*
X159543117Y-100563057D01*
X159280327Y-100299808D01*
X159009258Y-100187250D01*
X159047698Y-100171327D01*
X159226327Y-99992699D01*
X159323000Y-99759310D01*
X159323000Y-99318952D01*
X159475582Y-99688229D01*
X159850796Y-100064098D01*
X160341287Y-100267768D01*
X160872383Y-100268231D01*
X161363229Y-100065418D01*
X161739098Y-99690204D01*
X161942768Y-99199713D01*
X161943231Y-98668617D01*
X161763239Y-98233000D01*
X164260560Y-98233000D01*
X164260560Y-99633000D01*
X164304838Y-99868317D01*
X164443910Y-100084441D01*
X164656110Y-100229431D01*
X164908000Y-100280440D01*
X166308000Y-100280440D01*
X166543317Y-100236162D01*
X166759441Y-100097090D01*
X166904431Y-99884890D01*
X166955440Y-99633000D01*
X166955440Y-98233000D01*
X166911162Y-97997683D01*
X166772090Y-97781559D01*
X166559890Y-97636569D01*
X166308000Y-97585560D01*
X164908000Y-97585560D01*
X164672683Y-97629838D01*
X164456559Y-97768910D01*
X164311569Y-97981110D01*
X164260560Y-98233000D01*
X161763239Y-98233000D01*
X161740418Y-98177771D01*
X161478105Y-97915000D01*
X162378537Y-97915000D01*
X162410673Y-97947192D01*
X162754201Y-98089838D01*
X163126167Y-98090162D01*
X163469943Y-97948117D01*
X163733192Y-97685327D01*
X163875838Y-97341799D01*
X163876162Y-96969833D01*
X163734117Y-96626057D01*
X163471327Y-96362808D01*
X163127799Y-96220162D01*
X162755833Y-96219838D01*
X162412057Y-96361883D01*
X162378882Y-96395000D01*
X157099000Y-96395000D01*
X156808161Y-96452852D01*
X156561599Y-96617598D01*
X154323068Y-98856130D01*
X154323231Y-98668617D01*
X154120418Y-98177771D01*
X153745204Y-97801902D01*
X153254713Y-97598232D01*
X152723617Y-97597769D01*
X152232771Y-97800582D01*
X151856902Y-98175796D01*
X151653232Y-98666287D01*
X151652769Y-99197383D01*
X151855582Y-99688229D01*
X152230796Y-100064098D01*
X152721287Y-100267768D01*
X152911264Y-100267934D01*
X151320500Y-101858698D01*
X150016401Y-100554599D01*
X149769839Y-100389852D01*
X149479000Y-100332000D01*
X143948496Y-100332000D01*
X143880462Y-100167345D01*
X143421073Y-99707154D01*
X142820547Y-99457794D01*
X142170306Y-99457226D01*
X141569345Y-99705538D01*
X141109154Y-100164927D01*
X140859794Y-100765453D01*
X140859226Y-101415694D01*
X136497380Y-101415694D01*
X136519401Y-101356418D01*
X136495341Y-100706623D01*
X136292965Y-100218042D01*
X136026163Y-100119443D01*
X135053605Y-101092000D01*
X134694395Y-101092000D01*
X133721837Y-100119443D01*
X133455035Y-100218042D01*
X133228599Y-100827582D01*
X132638012Y-100827582D01*
X132679035Y-100799553D01*
X132706315Y-100757159D01*
X132715000Y-100711000D01*
X132715000Y-99939837D01*
X133901443Y-99939837D01*
X134874000Y-100912395D01*
X135846557Y-99939837D01*
X135747958Y-99673035D01*
X135138418Y-99446599D01*
X134488623Y-99470659D01*
X134000042Y-99673035D01*
X133901443Y-99939837D01*
X132715000Y-99939837D01*
X132715000Y-99324188D01*
X145087417Y-99324188D01*
X145149071Y-99559800D01*
X145649480Y-99735927D01*
X146179199Y-99707148D01*
X146534929Y-99559800D01*
X146596583Y-99324188D01*
X145842000Y-98569605D01*
X145087417Y-99324188D01*
X132715000Y-99324188D01*
X132715000Y-99112147D01*
X132750332Y-99059269D01*
X132855240Y-98806000D01*
X132856347Y-98803328D01*
X133030358Y-97928513D01*
X133030358Y-97858584D01*
X133044000Y-97790000D01*
X133044000Y-96214000D01*
X133757549Y-96214000D01*
X133489154Y-96481927D01*
X133489154Y-96481927D01*
G37*
X133489154Y-96481927D02*
X133239794Y-97082453D01*
X133239226Y-97732694D01*
X133487538Y-98333655D01*
X133946927Y-98793846D01*
X134547453Y-99043206D01*
X135197694Y-99043774D01*
X135798655Y-98795462D01*
X136258846Y-98336073D01*
X136508206Y-97735547D01*
X136508774Y-97085306D01*
X136260462Y-96484345D01*
X135990588Y-96214000D01*
X141377549Y-96214000D01*
X141109154Y-96481927D01*
X140859794Y-97082453D01*
X140859226Y-97732694D01*
X141107538Y-98333655D01*
X141566927Y-98793846D01*
X142167453Y-99043206D01*
X142817694Y-99043774D01*
X143418655Y-98795462D01*
X143878846Y-98336073D01*
X143936394Y-98197480D01*
X144496073Y-98197480D01*
X144524852Y-98727199D01*
X144672200Y-99082929D01*
X144907812Y-99144583D01*
X145662395Y-98390000D01*
X146021605Y-98390000D01*
X146776188Y-99144583D01*
X147011800Y-99082929D01*
X147187927Y-98582520D01*
X147159148Y-98052801D01*
X147011800Y-97697071D01*
X146776188Y-97635417D01*
X146021605Y-98390000D01*
X145662395Y-98390000D01*
X144907812Y-97635417D01*
X144672200Y-97697071D01*
X144496073Y-98197480D01*
X143936394Y-98197480D01*
X144128206Y-97735547D01*
X144128450Y-97455812D01*
X145087417Y-97455812D01*
X145842000Y-98210395D01*
X146596583Y-97455812D01*
X146534929Y-97220200D01*
X146034520Y-97044073D01*
X145504801Y-97072852D01*
X145149071Y-97220200D01*
X145087417Y-97455812D01*
X144128450Y-97455812D01*
X144128774Y-97085306D01*
X143880462Y-96484345D01*
X143610588Y-96214000D01*
X147909045Y-96214000D01*
X147908838Y-96451167D01*
X148050883Y-96794943D01*
X148313673Y-97058192D01*
X148657201Y-97200838D01*
X148704077Y-97200879D01*
X149175940Y-97672742D01*
X148988732Y-98123587D01*
X148988269Y-98654086D01*
X149190854Y-99144380D01*
X149565647Y-99519827D01*
X150055587Y-99723268D01*
X150586086Y-99723731D01*
X151076380Y-99521146D01*
X151451827Y-99146353D01*
X151655268Y-98656413D01*
X151655731Y-98125914D01*
X151453146Y-97635620D01*
X151078353Y-97260173D01*
X150795541Y-97142739D01*
X149866802Y-96214000D01*
X178013908Y-96214000D01*
X180091954Y-98292046D01*
X180322295Y-98445954D01*
X180594000Y-98500000D01*
X190552000Y-98500000D01*
X190552000Y-103938000D01*
X189992000Y-103938000D01*
X189923416Y-103951642D01*
X188978672Y-104125653D01*
X188828746Y-104187755D01*
X188722731Y-104231668D01*
X187981099Y-104727211D01*
X187785210Y-104923099D01*
X187289669Y-105664730D01*
X187289668Y-105664731D01*
X187183653Y-105920672D01*
X187009642Y-106795486D01*
X187009643Y-106934000D01*
X187009642Y-107072514D01*
X187183653Y-107947328D01*
X187252277Y-108113000D01*
X187289668Y-108203269D01*
X187785210Y-108944901D01*
X187887148Y-109046838D01*
X187981099Y-109140789D01*
X188722731Y-109636332D01*
X188828746Y-109680245D01*
X188978672Y-109742347D01*
X189111246Y-109768717D01*
X189113006Y-109777410D01*
X189141447Y-109819035D01*
X189207282Y-109852951D01*
X190502283Y-110088406D01*
X190552000Y-112375387D01*
X190552000Y-115368000D01*
X180594000Y-115368000D01*
X180322295Y-115422046D01*
X180091954Y-115575954D01*
X178013908Y-117654000D01*
X150887301Y-117654000D01*
X151038655Y-117591462D01*
X151498846Y-117132073D01*
X151748206Y-116531547D01*
X151748774Y-115881306D01*
X151528314Y-115347750D01*
X154621000Y-115347750D01*
X154621000Y-115888310D01*
X154717673Y-116121699D01*
X154896302Y-116300327D01*
X155129691Y-116397000D01*
X155670250Y-116397000D01*
X155829000Y-116238250D01*
X155829000Y-115189000D01*
X156083000Y-115189000D01*
X156083000Y-116238250D01*
X156241750Y-116397000D01*
X156782309Y-116397000D01*
X157015698Y-116300327D01*
X157194327Y-116121699D01*
X157291000Y-115888310D01*
X157291000Y-115347750D01*
X157132250Y-115189000D01*
X156083000Y-115189000D01*
X155829000Y-115189000D01*
X154779750Y-115189000D01*
X154621000Y-115347750D01*
X151528314Y-115347750D01*
X151500462Y-115280345D01*
X151041073Y-114820154D01*
X150440547Y-114570794D01*
X149790306Y-114570226D01*
X149189345Y-114818538D01*
X148729154Y-115277927D01*
X148479794Y-115878453D01*
X148479226Y-116528694D01*
X148727538Y-117129655D01*
X149186927Y-117589846D01*
X149341427Y-117654000D01*
X143267301Y-117654000D01*
X143418655Y-117591462D01*
X143878846Y-117132073D01*
X144128206Y-116531547D01*
X144128774Y-115881306D01*
X143880462Y-115280345D01*
X143421073Y-114820154D01*
X143337394Y-114785408D01*
X143887112Y-114235690D01*
X154621000Y-114235690D01*
X154621000Y-114776250D01*
X154779750Y-114935000D01*
X155829000Y-114935000D01*
X155829000Y-113885750D01*
X156083000Y-113885750D01*
X156083000Y-114935000D01*
X157132250Y-114935000D01*
X157291000Y-114776250D01*
X157291000Y-114235690D01*
X157194327Y-114002301D01*
X157015698Y-113823673D01*
X156782309Y-113727000D01*
X156241750Y-113727000D01*
X156083000Y-113885750D01*
X155829000Y-113885750D01*
X155670250Y-113727000D01*
X155129691Y-113727000D01*
X154896302Y-113823673D01*
X154717673Y-114002301D01*
X154621000Y-114235690D01*
X143887112Y-114235690D01*
X144542527Y-113580275D01*
X144707352Y-113648716D01*
X145357795Y-113649284D01*
X145958943Y-113400894D01*
X146025574Y-113334379D01*
X146109910Y-113465441D01*
X146322110Y-113610431D01*
X146574000Y-113661440D01*
X148574000Y-113661440D01*
X148809317Y-113617162D01*
X149025441Y-113478090D01*
X149170431Y-113265890D01*
X149221440Y-113014000D01*
X149221440Y-111014000D01*
X149177162Y-110778683D01*
X149038090Y-110562559D01*
X148825890Y-110417569D01*
X148574000Y-110366560D01*
X146574000Y-110366560D01*
X146338683Y-110410838D01*
X146122559Y-110549910D01*
X146025090Y-110692561D01*
X145961363Y-110628722D01*
X145360648Y-110379284D01*
X144710205Y-110378716D01*
X144109057Y-110627106D01*
X143648722Y-111086637D01*
X143399284Y-111687352D01*
X143398716Y-112337795D01*
X143467919Y-112505279D01*
X141956599Y-114016599D01*
X141791852Y-114263161D01*
X141734000Y-114554000D01*
X141734000Y-114750504D01*
X141569345Y-114818538D01*
X141109154Y-115277927D01*
X140859794Y-115878453D01*
X140859226Y-116528694D01*
X141107538Y-117129655D01*
X141566927Y-117589846D01*
X141721427Y-117654000D01*
X128472000Y-117654000D01*
X128472000Y-115488086D01*
X131046269Y-115488086D01*
X131248854Y-115978380D01*
X131623647Y-116353827D01*
X132113587Y-116557268D01*
X132644086Y-116557731D01*
X133134380Y-116355146D01*
X133509827Y-115980353D01*
X133713268Y-115490413D01*
X133713270Y-115488086D01*
X135526269Y-115488086D01*
X135728854Y-115978380D01*
X136103647Y-116353827D01*
X136593587Y-116557268D01*
X137124086Y-116557731D01*
X137614380Y-116355146D01*
X137989827Y-115980353D01*
X138193268Y-115490413D01*
X138193731Y-114959914D01*
X137991146Y-114469620D01*
X137616353Y-114094173D01*
X137126413Y-113890732D01*
X136595914Y-113890269D01*
X136105620Y-114092854D01*
X135730173Y-114467647D01*
X135526732Y-114957587D01*
X135526269Y-115488086D01*
X133713270Y-115488086D01*
X133713731Y-114959914D01*
X133511146Y-114469620D01*
X133136353Y-114094173D01*
X132646413Y-113890732D01*
X132115914Y-113890269D01*
X131625620Y-114092854D01*
X131250173Y-114467647D01*
X131046732Y-114957587D01*
X131046269Y-115488086D01*
X128472000Y-115488086D01*
X128472000Y-109068086D01*
X131046269Y-109068086D01*
X131248854Y-109558380D01*
X131623647Y-109933827D01*
X132113587Y-110137268D01*
X132644086Y-110137731D01*
X133134380Y-109935146D01*
X133509827Y-109560353D01*
X133713268Y-109070413D01*
X133713270Y-109068086D01*
X135526269Y-109068086D01*
X135728854Y-109558380D01*
X136103647Y-109933827D01*
X136593587Y-110137268D01*
X137124086Y-110137731D01*
X137614380Y-109935146D01*
X137989827Y-109560353D01*
X138193268Y-109070413D01*
X138193731Y-108539914D01*
X137991146Y-108049620D01*
X137616353Y-107674173D01*
X137133682Y-107473750D01*
X138288000Y-107473750D01*
X138288000Y-107964310D01*
X138384673Y-108197699D01*
X138563302Y-108376327D01*
X138796691Y-108473000D01*
X139287250Y-108473000D01*
X139446000Y-108314250D01*
X139446000Y-107315000D01*
X138446750Y-107315000D01*
X138288000Y-107473750D01*
X137133682Y-107473750D01*
X137126413Y-107470732D01*
X136595914Y-107470269D01*
X136105620Y-107672854D01*
X135730173Y-108047647D01*
X135526732Y-108537587D01*
X135526269Y-109068086D01*
X133713270Y-109068086D01*
X133713731Y-108539914D01*
X133511146Y-108049620D01*
X133136353Y-107674173D01*
X132646413Y-107470732D01*
X132115914Y-107470269D01*
X131625620Y-107672854D01*
X131250173Y-108047647D01*
X131046732Y-108537587D01*
X131046269Y-109068086D01*
X128472000Y-109068086D01*
X128472000Y-108168213D01*
X128700392Y-108168213D01*
X128769857Y-108410397D01*
X129293302Y-108597144D01*
X129848368Y-108569362D01*
X130232143Y-108410397D01*
X130301608Y-108168213D01*
X129501000Y-107367605D01*
X128700392Y-108168213D01*
X128472000Y-108168213D01*
X128472000Y-107974615D01*
X128520787Y-107988608D01*
X129321395Y-107188000D01*
X129680605Y-107188000D01*
X130481213Y-107988608D01*
X130723397Y-107919143D01*
X130910144Y-107395698D01*
X130882362Y-106840632D01*
X130723397Y-106456857D01*
X130565926Y-106411690D01*
X138288000Y-106411690D01*
X138288000Y-106902250D01*
X138446750Y-107061000D01*
X139446000Y-107061000D01*
X139446000Y-106061750D01*
X139700000Y-106061750D01*
X139700000Y-107061000D01*
X139720000Y-107061000D01*
X139720000Y-107315000D01*
X139700000Y-107315000D01*
X139700000Y-108314250D01*
X139858750Y-108473000D01*
X140349309Y-108473000D01*
X140582698Y-108376327D01*
X140761327Y-108197699D01*
X140858000Y-107964310D01*
X140858000Y-107612433D01*
X140982995Y-107914943D01*
X141344155Y-108276735D01*
X141816276Y-108472777D01*
X142327481Y-108473223D01*
X142799943Y-108278005D01*
X143161735Y-107916845D01*
X143357777Y-107444724D01*
X143358223Y-106933519D01*
X143163005Y-106461057D01*
X142801845Y-106099265D01*
X142329724Y-105903223D01*
X141818519Y-105902777D01*
X141346057Y-106097995D01*
X140984265Y-106459155D01*
X140858000Y-106763235D01*
X140858000Y-106411690D01*
X140761327Y-106178301D01*
X140582698Y-105999673D01*
X140349309Y-105903000D01*
X139858750Y-105903000D01*
X139700000Y-106061750D01*
X139446000Y-106061750D01*
X139287250Y-105903000D01*
X138796691Y-105903000D01*
X138563302Y-105999673D01*
X138384673Y-106178301D01*
X138288000Y-106411690D01*
X130565926Y-106411690D01*
X130481213Y-106387392D01*
X129680605Y-107188000D01*
X129321395Y-107188000D01*
X128520787Y-106387392D01*
X128472000Y-106401385D01*
X128472000Y-106207787D01*
X128700392Y-106207787D01*
X129501000Y-107008395D01*
X130301608Y-106207787D01*
X130232143Y-105965603D01*
X129708698Y-105778856D01*
X129153632Y-105806638D01*
X128769857Y-105965603D01*
X128700392Y-106207787D01*
X128472000Y-106207787D01*
X128472000Y-105744188D01*
X145087417Y-105744188D01*
X145149071Y-105979800D01*
X145649480Y-106155927D01*
X146179199Y-106127148D01*
X146534929Y-105979800D01*
X146596583Y-105744188D01*
X145842000Y-104989605D01*
X145087417Y-105744188D01*
X128472000Y-105744188D01*
X128472000Y-104617480D01*
X144496073Y-104617480D01*
X144524852Y-105147199D01*
X144672200Y-105502929D01*
X144907812Y-105564583D01*
X145662395Y-104810000D01*
X146021605Y-104810000D01*
X146776188Y-105564583D01*
X147011800Y-105502929D01*
X147187927Y-105002520D01*
X147159148Y-104472801D01*
X147011800Y-104117071D01*
X146776188Y-104055417D01*
X146021605Y-104810000D01*
X145662395Y-104810000D01*
X144907812Y-104055417D01*
X144672200Y-104117071D01*
X144496073Y-104617480D01*
X128472000Y-104617480D01*
X128472000Y-103875812D01*
X145087417Y-103875812D01*
X145842000Y-104630395D01*
X146596583Y-103875812D01*
X146534929Y-103640200D01*
X146034520Y-103464073D01*
X145504801Y-103492852D01*
X145149071Y-103640200D01*
X145087417Y-103875812D01*
X128472000Y-103875812D01*
X128472000Y-102244163D01*
X133901443Y-102244163D01*
X134000042Y-102510965D01*
X134609582Y-102737401D01*
X135259377Y-102713341D01*
X135747958Y-102510965D01*
X135846557Y-102244163D01*
X134874000Y-101271605D01*
X133901443Y-102244163D01*
X128472000Y-102244163D01*
X128472000Y-100838000D01*
X132588000Y-100838000D01*
X132637410Y-100827994D01*
X132638012Y-100827582D01*
X133228599Y-100827582D01*
X133252659Y-101477377D01*
X133455035Y-101965958D01*
X133721837Y-102064557D01*
X134694395Y-101092000D01*
X135053605Y-101092000D01*
X136026163Y-102064557D01*
X136292965Y-101965958D01*
X136497380Y-101415694D01*
X140859226Y-101415694D01*
X141107538Y-102016655D01*
X141566927Y-102476846D01*
X142167453Y-102726206D01*
X142817694Y-102726774D01*
X143418655Y-102478462D01*
X143878846Y-102019073D01*
X143948221Y-101852000D01*
X149164198Y-101852000D01*
X150846599Y-103534401D01*
X151042453Y-103665266D01*
X150588413Y-103476732D01*
X150057914Y-103476269D01*
X149567620Y-103678854D01*
X149192173Y-104053647D01*
X148988732Y-104543587D01*
X148988269Y-105074086D01*
X149190854Y-105564380D01*
X149417006Y-105790926D01*
X149224339Y-105790758D01*
X148710697Y-106002990D01*
X148317371Y-106395630D01*
X148104243Y-106908900D01*
X148103758Y-107464661D01*
X148315990Y-107978303D01*
X148708630Y-108371629D01*
X149221900Y-108584757D01*
X149777661Y-108585242D01*
X150291303Y-108373010D01*
X150684629Y-107980370D01*
X150897757Y-107467100D01*
X150898242Y-106911339D01*
X150686010Y-106397697D01*
X150432353Y-106143597D01*
X150586086Y-106143731D01*
X151076380Y-105941146D01*
X151451827Y-105566353D01*
X151655268Y-105076413D01*
X151655731Y-104545914D01*
X151453146Y-104055620D01*
X151098319Y-103700174D01*
X151384000Y-103757000D01*
X151831198Y-103757000D01*
X152021000Y-103946802D01*
X152021000Y-107442000D01*
X152057998Y-107628000D01*
X151581000Y-107628000D01*
X151290160Y-107685852D01*
X151043599Y-107850599D01*
X150101210Y-108792988D01*
X149928833Y-108792838D01*
X149585057Y-108934883D01*
X149321808Y-109197673D01*
X149179162Y-109541201D01*
X149178838Y-109913167D01*
X149320883Y-110256943D01*
X149583673Y-110520192D01*
X149927201Y-110662838D01*
X150299167Y-110663162D01*
X150642943Y-110521117D01*
X150906192Y-110258327D01*
X150991913Y-110051889D01*
X151895802Y-109148000D01*
X152224002Y-109148000D01*
X152125057Y-109188883D01*
X151861808Y-109451673D01*
X151719162Y-109795201D01*
X151718838Y-110167167D01*
X151860883Y-110510943D01*
X152123673Y-110774192D01*
X152467201Y-110916838D01*
X152839167Y-110917162D01*
X153113005Y-110804015D01*
X153194110Y-110859431D01*
X153446000Y-110910440D01*
X154773560Y-110910440D01*
X154773560Y-112238000D01*
X154817838Y-112473317D01*
X154956910Y-112689441D01*
X155169110Y-112834431D01*
X155421000Y-112885440D01*
X155971000Y-112885440D01*
X156100589Y-112861056D01*
X156221000Y-112885440D01*
X156771000Y-112885440D01*
X156900589Y-112861056D01*
X157021000Y-112885440D01*
X157571000Y-112885440D01*
X157676705Y-112865550D01*
X157694690Y-112873000D01*
X157810250Y-112873000D01*
X157906651Y-112776599D01*
X158022441Y-112702090D01*
X158095884Y-112594603D01*
X158136000Y-112656946D01*
X158136000Y-113002000D01*
X158193852Y-113292839D01*
X158358599Y-113539401D01*
X159621226Y-114802028D01*
X159620769Y-115326383D01*
X159823582Y-115817229D01*
X160198796Y-116193098D01*
X160689287Y-116396768D01*
X161220383Y-116397231D01*
X161711229Y-116194418D01*
X162087098Y-115819204D01*
X162290768Y-115328713D01*
X162291231Y-114797617D01*
X162088418Y-114306771D01*
X161713204Y-113930902D01*
X161222713Y-113727232D01*
X160695574Y-113726772D01*
X159823002Y-112854200D01*
X159823002Y-112734600D01*
X159887245Y-112778495D01*
X159981750Y-112873000D01*
X160097310Y-112873000D01*
X160117753Y-112864532D01*
X160221000Y-112885440D01*
X160771000Y-112885440D01*
X160900589Y-112861056D01*
X161021000Y-112885440D01*
X161571000Y-112885440D01*
X161806317Y-112841162D01*
X162022441Y-112702090D01*
X162167431Y-112489890D01*
X162218440Y-112238000D01*
X162218440Y-110910440D01*
X163546000Y-110910440D01*
X163781317Y-110866162D01*
X163997441Y-110727090D01*
X164142431Y-110514890D01*
X164193440Y-110263000D01*
X164193440Y-109713000D01*
X164169056Y-109583411D01*
X164193440Y-109463000D01*
X164193440Y-108913000D01*
X164169056Y-108783411D01*
X164193440Y-108663000D01*
X164193440Y-108113000D01*
X164169056Y-107983411D01*
X164193440Y-107863000D01*
X164193440Y-107548000D01*
X178736198Y-107548000D01*
X178818000Y-107629802D01*
X178818000Y-109601000D01*
X178875852Y-109891839D01*
X179040599Y-110138401D01*
X179929599Y-111027401D01*
X180176161Y-111192148D01*
X180467000Y-111250000D01*
X185166000Y-111250000D01*
X185456839Y-111192148D01*
X185703401Y-111027401D01*
X186338401Y-110392401D01*
X186503148Y-110145839D01*
X186561000Y-109855000D01*
X186561000Y-104902000D01*
X186503148Y-104611161D01*
X186338401Y-104364599D01*
X185602775Y-103628973D01*
X185677959Y-103251000D01*
X185563885Y-102677511D01*
X185239029Y-102191330D01*
X185225358Y-102182195D01*
X185248917Y-102177762D01*
X185465041Y-102038690D01*
X185610031Y-101826490D01*
X185661040Y-101574600D01*
X185661040Y-99847400D01*
X185616762Y-99612083D01*
X185477690Y-99395959D01*
X185265490Y-99250969D01*
X185013600Y-99199960D01*
X183286400Y-99199960D01*
X183051083Y-99244238D01*
X182834959Y-99383310D01*
X182689969Y-99595510D01*
X182670338Y-99692451D01*
X182498490Y-99504179D01*
X181969027Y-99256032D01*
X181737000Y-99376531D01*
X181737000Y-100584000D01*
X181757000Y-100584000D01*
X181757000Y-100838000D01*
X181737000Y-100838000D01*
X181737000Y-100858000D01*
X181483000Y-100858000D01*
X181483000Y-100838000D01*
X180276183Y-100838000D01*
X180155042Y-101070026D01*
X180327312Y-101485947D01*
X180721510Y-101917821D01*
X180844228Y-101975336D01*
X180520971Y-102191330D01*
X180320738Y-102491000D01*
X180213000Y-102491000D01*
X179922161Y-102548852D01*
X179675599Y-102713599D01*
X178939659Y-103449539D01*
X178711327Y-103220808D01*
X178367799Y-103078162D01*
X177995833Y-103077838D01*
X177652057Y-103219883D01*
X177388808Y-103482673D01*
X177246162Y-103826201D01*
X177246121Y-103873077D01*
X176691198Y-104428000D01*
X174522802Y-104428000D01*
X175390027Y-103560775D01*
X175768000Y-103635959D01*
X176341489Y-103521885D01*
X176827670Y-103197029D01*
X177152526Y-102710848D01*
X177266600Y-102137359D01*
X177266600Y-102078641D01*
X177152526Y-101505152D01*
X176827670Y-101018971D01*
X176556839Y-100838008D01*
X176974821Y-100456490D01*
X177023805Y-100351974D01*
X180155042Y-100351974D01*
X180276183Y-100584000D01*
X181483000Y-100584000D01*
X181483000Y-99376531D01*
X181250973Y-99256032D01*
X180721510Y-99504179D01*
X180327312Y-99936053D01*
X180155042Y-100351974D01*
X177023805Y-100351974D01*
X177222968Y-99927027D01*
X177102469Y-99695000D01*
X175895000Y-99695000D01*
X175895000Y-99715000D01*
X175641000Y-99715000D01*
X175641000Y-99695000D01*
X175621000Y-99695000D01*
X175621000Y-99441000D01*
X175641000Y-99441000D01*
X175641000Y-98234183D01*
X175895000Y-98234183D01*
X175895000Y-99441000D01*
X177102469Y-99441000D01*
X177222968Y-99208973D01*
X176974821Y-98679510D01*
X176542947Y-98285312D01*
X176127026Y-98113042D01*
X175895000Y-98234183D01*
X175641000Y-98234183D01*
X175408974Y-98113042D01*
X174993053Y-98285312D01*
X174561179Y-98679510D01*
X174503664Y-98802228D01*
X174287670Y-98478971D01*
X173801489Y-98154115D01*
X173228000Y-98040041D01*
X172654511Y-98154115D01*
X172168330Y-98478971D01*
X172159195Y-98492642D01*
X172154762Y-98469083D01*
X172015690Y-98252959D01*
X171803490Y-98107969D01*
X171551600Y-98056960D01*
X169824400Y-98056960D01*
X169589083Y-98101238D01*
X169372959Y-98240310D01*
X169227969Y-98452510D01*
X169176960Y-98704400D01*
X169176960Y-100431600D01*
X169221238Y-100666917D01*
X169360310Y-100883041D01*
X169572510Y-101028031D01*
X169616345Y-101036908D01*
X169303474Y-101505152D01*
X169189400Y-102078641D01*
X169189400Y-102137359D01*
X169303474Y-102710848D01*
X169580870Y-103126000D01*
X167065802Y-103126000D01*
X166738122Y-102798320D01*
X166738162Y-102752833D01*
X166596117Y-102409057D01*
X166333327Y-102145808D01*
X165989799Y-102003162D01*
X165617833Y-102002838D01*
X165274057Y-102144883D01*
X165240882Y-102178000D01*
X162218440Y-102178000D01*
X162218440Y-102138000D01*
X162174162Y-101902683D01*
X162035090Y-101686559D01*
X161822890Y-101541569D01*
X161571000Y-101490560D01*
X161021000Y-101490560D01*
X160915295Y-101510450D01*
X160897310Y-101503000D01*
X160781750Y-101503000D01*
X160685349Y-101599401D01*
X160569559Y-101673910D01*
X160496116Y-101781397D01*
X160435090Y-101686559D01*
X160304755Y-101597505D01*
X160210250Y-101503000D01*
X160094690Y-101503000D01*
X160074247Y-101511468D01*
X159971000Y-101490560D01*
X159656000Y-101490560D01*
X159656000Y-101348248D01*
X159684838Y-101278799D01*
X159685162Y-100906833D01*
X159543117Y-100563057D01*
X159280327Y-100299808D01*
X159009258Y-100187250D01*
X159047698Y-100171327D01*
X159226327Y-99992699D01*
X159323000Y-99759310D01*
X159323000Y-99318952D01*
X159475582Y-99688229D01*
X159850796Y-100064098D01*
X160341287Y-100267768D01*
X160872383Y-100268231D01*
X161363229Y-100065418D01*
X161739098Y-99690204D01*
X161942768Y-99199713D01*
X161943231Y-98668617D01*
X161763239Y-98233000D01*
X164260560Y-98233000D01*
X164260560Y-99633000D01*
X164304838Y-99868317D01*
X164443910Y-100084441D01*
X164656110Y-100229431D01*
X164908000Y-100280440D01*
X166308000Y-100280440D01*
X166543317Y-100236162D01*
X166759441Y-100097090D01*
X166904431Y-99884890D01*
X166955440Y-99633000D01*
X166955440Y-98233000D01*
X166911162Y-97997683D01*
X166772090Y-97781559D01*
X166559890Y-97636569D01*
X166308000Y-97585560D01*
X164908000Y-97585560D01*
X164672683Y-97629838D01*
X164456559Y-97768910D01*
X164311569Y-97981110D01*
X164260560Y-98233000D01*
X161763239Y-98233000D01*
X161740418Y-98177771D01*
X161478105Y-97915000D01*
X162378537Y-97915000D01*
X162410673Y-97947192D01*
X162754201Y-98089838D01*
X163126167Y-98090162D01*
X163469943Y-97948117D01*
X163733192Y-97685327D01*
X163875838Y-97341799D01*
X163876162Y-96969833D01*
X163734117Y-96626057D01*
X163471327Y-96362808D01*
X163127799Y-96220162D01*
X162755833Y-96219838D01*
X162412057Y-96361883D01*
X162378882Y-96395000D01*
X157099000Y-96395000D01*
X156808161Y-96452852D01*
X156561599Y-96617598D01*
X154323068Y-98856130D01*
X154323231Y-98668617D01*
X154120418Y-98177771D01*
X153745204Y-97801902D01*
X153254713Y-97598232D01*
X152723617Y-97597769D01*
X152232771Y-97800582D01*
X151856902Y-98175796D01*
X151653232Y-98666287D01*
X151652769Y-99197383D01*
X151855582Y-99688229D01*
X152230796Y-100064098D01*
X152721287Y-100267768D01*
X152911264Y-100267934D01*
X151320500Y-101858698D01*
X150016401Y-100554599D01*
X149769839Y-100389852D01*
X149479000Y-100332000D01*
X143948496Y-100332000D01*
X143880462Y-100167345D01*
X143421073Y-99707154D01*
X142820547Y-99457794D01*
X142170306Y-99457226D01*
X141569345Y-99705538D01*
X141109154Y-100164927D01*
X140859794Y-100765453D01*
X140859226Y-101415694D01*
X136497380Y-101415694D01*
X136519401Y-101356418D01*
X136495341Y-100706623D01*
X136292965Y-100218042D01*
X136026163Y-100119443D01*
X135053605Y-101092000D01*
X134694395Y-101092000D01*
X133721837Y-100119443D01*
X133455035Y-100218042D01*
X133228599Y-100827582D01*
X132638012Y-100827582D01*
X132679035Y-100799553D01*
X132706315Y-100757159D01*
X132715000Y-100711000D01*
X132715000Y-99939837D01*
X133901443Y-99939837D01*
X134874000Y-100912395D01*
X135846557Y-99939837D01*
X135747958Y-99673035D01*
X135138418Y-99446599D01*
X134488623Y-99470659D01*
X134000042Y-99673035D01*
X133901443Y-99939837D01*
X132715000Y-99939837D01*
X132715000Y-99324188D01*
X145087417Y-99324188D01*
X145149071Y-99559800D01*
X145649480Y-99735927D01*
X146179199Y-99707148D01*
X146534929Y-99559800D01*
X146596583Y-99324188D01*
X145842000Y-98569605D01*
X145087417Y-99324188D01*
X132715000Y-99324188D01*
X132715000Y-99112147D01*
X132750332Y-99059269D01*
X132855240Y-98806000D01*
X132856347Y-98803328D01*
X133030358Y-97928513D01*
X133030358Y-97858584D01*
X133044000Y-97790000D01*
X133044000Y-96214000D01*
X133757549Y-96214000D01*
X133489154Y-96481927D01*
G36*
X156811750Y-98806000D02*
X157861000Y-98806000D01*
X157861000Y-98786000D01*
X158115000Y-98786000D01*
X158115000Y-98806000D01*
X158135000Y-98806000D01*
X158135000Y-99060000D01*
X158115000Y-99060000D01*
X158115000Y-100109250D01*
X158273750Y-100268000D01*
X158295800Y-100268000D01*
X158221057Y-100298883D01*
X157957808Y-100561673D01*
X157815162Y-100905201D01*
X157814838Y-101277167D01*
X157903010Y-101490560D01*
X157821000Y-101490560D01*
X157691411Y-101514944D01*
X157571000Y-101490560D01*
X157021000Y-101490560D01*
X156891411Y-101514944D01*
X156771000Y-101490560D01*
X156221000Y-101490560D01*
X156091411Y-101514944D01*
X155971000Y-101490560D01*
X155421000Y-101490560D01*
X155185683Y-101534838D01*
X154969559Y-101673910D01*
X154824569Y-101886110D01*
X154773560Y-102138000D01*
X154773560Y-103465560D01*
X153507893Y-103465560D01*
X153483148Y-103341161D01*
X153318401Y-103094599D01*
X152776302Y-102552500D01*
X156110052Y-99218750D01*
X156653000Y-99218750D01*
X156653000Y-99759310D01*
X156749673Y-99992699D01*
X156928302Y-100171327D01*
X157161691Y-100268000D01*
X157702250Y-100268000D01*
X157861000Y-100109250D01*
X157861000Y-99060000D01*
X156811750Y-99060000D01*
X156653000Y-99218750D01*
X156110052Y-99218750D01*
X156667276Y-98661526D01*
X156811750Y-98806000D01*
X156811750Y-98806000D01*
G37*
X156811750Y-98806000D02*
X157861000Y-98806000D01*
X157861000Y-98786000D01*
X158115000Y-98786000D01*
X158115000Y-98806000D01*
X158135000Y-98806000D01*
X158135000Y-99060000D01*
X158115000Y-99060000D01*
X158115000Y-100109250D01*
X158273750Y-100268000D01*
X158295800Y-100268000D01*
X158221057Y-100298883D01*
X157957808Y-100561673D01*
X157815162Y-100905201D01*
X157814838Y-101277167D01*
X157903010Y-101490560D01*
X157821000Y-101490560D01*
X157691411Y-101514944D01*
X157571000Y-101490560D01*
X157021000Y-101490560D01*
X156891411Y-101514944D01*
X156771000Y-101490560D01*
X156221000Y-101490560D01*
X156091411Y-101514944D01*
X155971000Y-101490560D01*
X155421000Y-101490560D01*
X155185683Y-101534838D01*
X154969559Y-101673910D01*
X154824569Y-101886110D01*
X154773560Y-102138000D01*
X154773560Y-103465560D01*
X153507893Y-103465560D01*
X153483148Y-103341161D01*
X153318401Y-103094599D01*
X152776302Y-102552500D01*
X156110052Y-99218750D01*
X156653000Y-99218750D01*
X156653000Y-99759310D01*
X156749673Y-99992699D01*
X156928302Y-100171327D01*
X157161691Y-100268000D01*
X157702250Y-100268000D01*
X157861000Y-100109250D01*
X157861000Y-99060000D01*
X156811750Y-99060000D01*
X156653000Y-99218750D01*
X156110052Y-99218750D01*
X156667276Y-98661526D01*
X156811750Y-98806000D01*
M02*
