M48
;DRILL file {KiCad 4.0.2-4+6225~38~ubuntu14.04.1-stable} date Sat 05 Mar 2016 20:24:44 CET
;FORMAT={3:3/ absolute / metric / suppress leading zeros}
FMAT,2
METRIC,TZ
T1C0.400
T2C0.762
T3C0.800
T4C0.813
T5C0.900
T6C1.001
T7C1.016
%
G90
G05
M71
T1
X148844Y-96266
X150114Y-109728
X152654Y-109982
X157734Y-107061
X158750Y-101092
X162941Y-97155
X165803Y-102938
X173488Y-104388
X178181Y-104013
T2
X129501Y-107188
X149501Y-107188
T3
X139573Y-107188
X142073Y-107188
T4
X132380Y-108804
X132380Y-115224
X136860Y-108804
X136860Y-115224
X145842Y-98390
X145842Y-104810
X150322Y-98390
X150322Y-104810
T5
X152988Y-98933
X155956Y-115062
X157988Y-98933
X160608Y-98933
X160956Y-115062
X165608Y-98933
T6
X134874Y-97409
X134874Y-101092
X142494Y-97409
X142494Y-101092
X142494Y-116205
X145034Y-112014
X147574Y-112014
X150114Y-116205
T7
X170688Y-99568
X170688Y-102108
X173228Y-99568
X173228Y-102108
X175768Y-99568
X175768Y-102108
X181610Y-100711
X181610Y-103251
X181610Y-105791
X181610Y-108331
X184150Y-100711
X184150Y-103251
X184150Y-105791
X184150Y-108331
T0
M30
