G04 #@! TF.FileFunction,Legend,Top*
%FSLAX46Y46*%
G04 Gerber Fmt 4.6, Leading zero omitted, Abs format (unit mm)*
G04 Created by KiCad (PCBNEW 4.0.2-4+6225~38~ubuntu14.04.1-stable) date Sun 10 Apr 2016 19:44:50 CEST*
%MOMM*%
G01*
G04 APERTURE LIST*
%ADD10C,0.100000*%
%ADD11C,0.200000*%
%ADD12C,0.150000*%
G04 APERTURE END LIST*
D10*
D11*
X163933143Y-115776476D02*
X163980762Y-115824095D01*
X164028381Y-115966952D01*
X164028381Y-116062190D01*
X163980762Y-116205048D01*
X163885524Y-116300286D01*
X163790286Y-116347905D01*
X163599810Y-116395524D01*
X163456952Y-116395524D01*
X163266476Y-116347905D01*
X163171238Y-116300286D01*
X163076000Y-116205048D01*
X163028381Y-116062190D01*
X163028381Y-115966952D01*
X163076000Y-115824095D01*
X163123619Y-115776476D01*
X164028381Y-115347905D02*
X163028381Y-115347905D01*
X164028381Y-114919333D02*
X163504571Y-114919333D01*
X163409333Y-114966952D01*
X163361714Y-115062190D01*
X163361714Y-115205048D01*
X163409333Y-115300286D01*
X163456952Y-115347905D01*
X164028381Y-114014571D02*
X163504571Y-114014571D01*
X163409333Y-114062190D01*
X163361714Y-114157428D01*
X163361714Y-114347905D01*
X163409333Y-114443143D01*
X163980762Y-114014571D02*
X164028381Y-114109809D01*
X164028381Y-114347905D01*
X163980762Y-114443143D01*
X163885524Y-114490762D01*
X163790286Y-114490762D01*
X163695048Y-114443143D01*
X163647429Y-114347905D01*
X163647429Y-114109809D01*
X163599810Y-114014571D01*
X164028381Y-113395524D02*
X163980762Y-113490762D01*
X163885524Y-113538381D01*
X163028381Y-113538381D01*
X164028381Y-112871714D02*
X163980762Y-112966952D01*
X163885524Y-113014571D01*
X163028381Y-113014571D01*
X163980762Y-112109808D02*
X164028381Y-112205046D01*
X164028381Y-112395523D01*
X163980762Y-112490761D01*
X163885524Y-112538380D01*
X163504571Y-112538380D01*
X163409333Y-112490761D01*
X163361714Y-112395523D01*
X163361714Y-112205046D01*
X163409333Y-112109808D01*
X163504571Y-112062189D01*
X163599810Y-112062189D01*
X163695048Y-112538380D01*
X163361714Y-111633618D02*
X164028381Y-111633618D01*
X163456952Y-111633618D02*
X163409333Y-111585999D01*
X163361714Y-111490761D01*
X163361714Y-111347903D01*
X163409333Y-111252665D01*
X163504571Y-111205046D01*
X164028381Y-111205046D01*
X163361714Y-110300284D02*
X164171238Y-110300284D01*
X164266476Y-110347903D01*
X164314095Y-110395522D01*
X164361714Y-110490761D01*
X164361714Y-110633618D01*
X164314095Y-110728856D01*
X163980762Y-110300284D02*
X164028381Y-110395522D01*
X164028381Y-110585999D01*
X163980762Y-110681237D01*
X163933143Y-110728856D01*
X163837905Y-110776475D01*
X163552190Y-110776475D01*
X163456952Y-110728856D01*
X163409333Y-110681237D01*
X163361714Y-110585999D01*
X163361714Y-110395522D01*
X163409333Y-110300284D01*
X163980762Y-109443141D02*
X164028381Y-109538379D01*
X164028381Y-109728856D01*
X163980762Y-109824094D01*
X163885524Y-109871713D01*
X163504571Y-109871713D01*
X163409333Y-109824094D01*
X163361714Y-109728856D01*
X163361714Y-109538379D01*
X163409333Y-109443141D01*
X163504571Y-109395522D01*
X163599810Y-109395522D01*
X163695048Y-109871713D01*
X164028381Y-107633617D02*
X163552190Y-107966951D01*
X164028381Y-108205046D02*
X163028381Y-108205046D01*
X163028381Y-107824093D01*
X163076000Y-107728855D01*
X163123619Y-107681236D01*
X163218857Y-107633617D01*
X163361714Y-107633617D01*
X163456952Y-107681236D01*
X163504571Y-107728855D01*
X163552190Y-107824093D01*
X163552190Y-108205046D01*
X163980762Y-106824093D02*
X164028381Y-106919331D01*
X164028381Y-107109808D01*
X163980762Y-107205046D01*
X163885524Y-107252665D01*
X163504571Y-107252665D01*
X163409333Y-107205046D01*
X163361714Y-107109808D01*
X163361714Y-106919331D01*
X163409333Y-106824093D01*
X163504571Y-106776474D01*
X163599810Y-106776474D01*
X163695048Y-107252665D01*
X163980762Y-106395522D02*
X164028381Y-106300284D01*
X164028381Y-106109808D01*
X163980762Y-106014569D01*
X163885524Y-105966950D01*
X163837905Y-105966950D01*
X163742667Y-106014569D01*
X163695048Y-106109808D01*
X163695048Y-106252665D01*
X163647429Y-106347903D01*
X163552190Y-106395522D01*
X163504571Y-106395522D01*
X163409333Y-106347903D01*
X163361714Y-106252665D01*
X163361714Y-106109808D01*
X163409333Y-106014569D01*
X163361714Y-105538379D02*
X164361714Y-105538379D01*
X163409333Y-105538379D02*
X163361714Y-105443141D01*
X163361714Y-105252664D01*
X163409333Y-105157426D01*
X163456952Y-105109807D01*
X163552190Y-105062188D01*
X163837905Y-105062188D01*
X163933143Y-105109807D01*
X163980762Y-105157426D01*
X164028381Y-105252664D01*
X164028381Y-105443141D01*
X163980762Y-105538379D01*
X164028381Y-104490760D02*
X163980762Y-104585998D01*
X163933143Y-104633617D01*
X163837905Y-104681236D01*
X163552190Y-104681236D01*
X163456952Y-104633617D01*
X163409333Y-104585998D01*
X163361714Y-104490760D01*
X163361714Y-104347902D01*
X163409333Y-104252664D01*
X163456952Y-104205045D01*
X163552190Y-104157426D01*
X163837905Y-104157426D01*
X163933143Y-104205045D01*
X163980762Y-104252664D01*
X164028381Y-104347902D01*
X164028381Y-104490760D01*
X163361714Y-103728855D02*
X164028381Y-103728855D01*
X163456952Y-103728855D02*
X163409333Y-103681236D01*
X163361714Y-103585998D01*
X163361714Y-103443140D01*
X163409333Y-103347902D01*
X163504571Y-103300283D01*
X164028381Y-103300283D01*
X163980762Y-102871712D02*
X164028381Y-102776474D01*
X164028381Y-102585998D01*
X163980762Y-102490759D01*
X163885524Y-102443140D01*
X163837905Y-102443140D01*
X163742667Y-102490759D01*
X163695048Y-102585998D01*
X163695048Y-102728855D01*
X163647429Y-102824093D01*
X163552190Y-102871712D01*
X163504571Y-102871712D01*
X163409333Y-102824093D01*
X163361714Y-102728855D01*
X163361714Y-102585998D01*
X163409333Y-102490759D01*
X163980762Y-101633616D02*
X164028381Y-101728854D01*
X164028381Y-101919331D01*
X163980762Y-102014569D01*
X163885524Y-102062188D01*
X163504571Y-102062188D01*
X163409333Y-102014569D01*
X163361714Y-101919331D01*
X163361714Y-101728854D01*
X163409333Y-101633616D01*
X163504571Y-101585997D01*
X163599810Y-101585997D01*
X163695048Y-102062188D01*
X163361714Y-100490759D02*
X164028381Y-100252664D01*
X163361714Y-100014568D01*
X163028381Y-99443140D02*
X163028381Y-99347901D01*
X163076000Y-99252663D01*
X163123619Y-99205044D01*
X163218857Y-99157425D01*
X163409333Y-99109806D01*
X163647429Y-99109806D01*
X163837905Y-99157425D01*
X163933143Y-99205044D01*
X163980762Y-99252663D01*
X164028381Y-99347901D01*
X164028381Y-99443140D01*
X163980762Y-99538378D01*
X163933143Y-99585997D01*
X163837905Y-99633616D01*
X163647429Y-99681235D01*
X163409333Y-99681235D01*
X163218857Y-99633616D01*
X163123619Y-99585997D01*
X163076000Y-99538378D01*
X163028381Y-99443140D01*
X163933143Y-98681235D02*
X163980762Y-98633616D01*
X164028381Y-98681235D01*
X163980762Y-98728854D01*
X163933143Y-98681235D01*
X164028381Y-98681235D01*
X163123619Y-98252664D02*
X163076000Y-98205045D01*
X163028381Y-98109807D01*
X163028381Y-97871711D01*
X163076000Y-97776473D01*
X163123619Y-97728854D01*
X163218857Y-97681235D01*
X163314095Y-97681235D01*
X163456952Y-97728854D01*
X164028381Y-98300283D01*
X164028381Y-97681235D01*
D12*
X141978000Y-100564000D02*
X138978000Y-100564000D01*
X138978000Y-98064000D02*
X141978000Y-98064000D01*
X137279000Y-100564000D02*
X134279000Y-100564000D01*
X134279000Y-98064000D02*
X137279000Y-98064000D01*
X136152000Y-111272000D02*
X139152000Y-111272000D01*
X139152000Y-113772000D02*
X136152000Y-113772000D01*
X155217000Y-112065000D02*
X155217000Y-117665000D01*
X142317000Y-117665000D02*
X155167000Y-117665000D01*
X142417000Y-112065000D02*
X155217000Y-112065000D01*
X144866000Y-114990000D02*
X139868000Y-114990000D01*
X144858000Y-115130000D02*
X139876000Y-115130000D01*
X144842000Y-115270000D02*
X142462000Y-115270000D01*
X142272000Y-115270000D02*
X139892000Y-115270000D01*
X144818000Y-115410000D02*
X142857000Y-115410000D01*
X141877000Y-115410000D02*
X139916000Y-115410000D01*
X144785000Y-115550000D02*
X143024000Y-115550000D01*
X141710000Y-115550000D02*
X139949000Y-115550000D01*
X144744000Y-115690000D02*
X143131000Y-115690000D01*
X141603000Y-115690000D02*
X139990000Y-115690000D01*
X144694000Y-115830000D02*
X143202000Y-115830000D01*
X141532000Y-115830000D02*
X140040000Y-115830000D01*
X144633000Y-115970000D02*
X143246000Y-115970000D01*
X141488000Y-115970000D02*
X140101000Y-115970000D01*
X144563000Y-116110000D02*
X143265000Y-116110000D01*
X141469000Y-116110000D02*
X140171000Y-116110000D01*
X144481000Y-116250000D02*
X143263000Y-116250000D01*
X141471000Y-116250000D02*
X140253000Y-116250000D01*
X144386000Y-116390000D02*
X143238000Y-116390000D01*
X141496000Y-116390000D02*
X140348000Y-116390000D01*
X144275000Y-116530000D02*
X143190000Y-116530000D01*
X141544000Y-116530000D02*
X140459000Y-116530000D01*
X144147000Y-116670000D02*
X143112000Y-116670000D01*
X141622000Y-116670000D02*
X140587000Y-116670000D01*
X143998000Y-116810000D02*
X142995000Y-116810000D01*
X141739000Y-116810000D02*
X140736000Y-116810000D01*
X143819000Y-116950000D02*
X142807000Y-116950000D01*
X141927000Y-116950000D02*
X140915000Y-116950000D01*
X143600000Y-117090000D02*
X141134000Y-117090000D01*
X143311000Y-117230000D02*
X141423000Y-117230000D01*
X142839000Y-117370000D02*
X141895000Y-117370000D01*
X143267000Y-116165000D02*
G75*
G03X143267000Y-116165000I-900000J0D01*
G01*
X144904500Y-114915000D02*
G75*
G03X144904500Y-114915000I-2537500J0D01*
G01*
X134026000Y-110468000D02*
G75*
G03X134026000Y-110468000I-100000J0D01*
G01*
X134526000Y-109518000D02*
X133226000Y-109518000D01*
X133226000Y-109518000D02*
X133176000Y-109518000D01*
X134551000Y-109543000D02*
X134876000Y-109543000D01*
X134551000Y-102293000D02*
X134876000Y-102293000D01*
X141801000Y-102293000D02*
X141476000Y-102293000D01*
X141801000Y-109543000D02*
X141476000Y-109543000D01*
X134551000Y-109543000D02*
X134551000Y-109218000D01*
X141801000Y-109543000D02*
X141801000Y-109218000D01*
X141801000Y-102293000D02*
X141801000Y-102618000D01*
X134551000Y-102293000D02*
X134551000Y-102618000D01*
X134876000Y-109543000D02*
X134876000Y-110968000D01*
X156718000Y-102489000D02*
X161798000Y-102489000D01*
X153898000Y-102769000D02*
X153898000Y-101219000D01*
X154178000Y-99949000D02*
X156718000Y-99949000D01*
X156718000Y-99949000D02*
X156718000Y-102489000D01*
X161798000Y-102489000D02*
X161798000Y-97409000D01*
X161798000Y-97409000D02*
X156718000Y-97409000D01*
X153898000Y-102769000D02*
X155448000Y-102769000D01*
X154178000Y-97409000D02*
X154178000Y-99949000D01*
X156718000Y-97409000D02*
X154178000Y-97409000D01*
X149832000Y-101600000D02*
G75*
G03X149832000Y-101600000I-1750000J0D01*
G01*
X151082000Y-98600000D02*
X151082000Y-104600000D01*
X151082000Y-104600000D02*
X145082000Y-104600000D01*
X145082000Y-104600000D02*
X145082000Y-98600000D01*
X151082000Y-98600000D02*
X145082000Y-98600000D01*
X136144000Y-117348000D02*
X131064000Y-117348000D01*
X131064000Y-117348000D02*
X131064000Y-114808000D01*
X131064000Y-114808000D02*
X136144000Y-114808000D01*
X136144000Y-114808000D02*
X136144000Y-117348000D01*
X151384000Y-104013000D02*
X151384000Y-98933000D01*
X151384000Y-98933000D02*
X153924000Y-98933000D01*
X153924000Y-98933000D02*
X153924000Y-104013000D01*
X153924000Y-104013000D02*
X151384000Y-104013000D01*
X140168334Y-97512143D02*
X140120715Y-97559762D01*
X139977858Y-97607381D01*
X139882620Y-97607381D01*
X139739762Y-97559762D01*
X139644524Y-97464524D01*
X139596905Y-97369286D01*
X139549286Y-97178810D01*
X139549286Y-97035952D01*
X139596905Y-96845476D01*
X139644524Y-96750238D01*
X139739762Y-96655000D01*
X139882620Y-96607381D01*
X139977858Y-96607381D01*
X140120715Y-96655000D01*
X140168334Y-96702619D01*
X140549286Y-96702619D02*
X140596905Y-96655000D01*
X140692143Y-96607381D01*
X140930239Y-96607381D01*
X141025477Y-96655000D01*
X141073096Y-96702619D01*
X141120715Y-96797857D01*
X141120715Y-96893095D01*
X141073096Y-97035952D01*
X140501667Y-97607381D01*
X141120715Y-97607381D01*
X135469334Y-97512143D02*
X135421715Y-97559762D01*
X135278858Y-97607381D01*
X135183620Y-97607381D01*
X135040762Y-97559762D01*
X134945524Y-97464524D01*
X134897905Y-97369286D01*
X134850286Y-97178810D01*
X134850286Y-97035952D01*
X134897905Y-96845476D01*
X134945524Y-96750238D01*
X135040762Y-96655000D01*
X135183620Y-96607381D01*
X135278858Y-96607381D01*
X135421715Y-96655000D01*
X135469334Y-96702619D01*
X135802667Y-96607381D02*
X136421715Y-96607381D01*
X136088381Y-96988333D01*
X136231239Y-96988333D01*
X136326477Y-97035952D01*
X136374096Y-97083571D01*
X136421715Y-97178810D01*
X136421715Y-97416905D01*
X136374096Y-97512143D01*
X136326477Y-97559762D01*
X136231239Y-97607381D01*
X135945524Y-97607381D01*
X135850286Y-97559762D01*
X135802667Y-97512143D01*
X133945334Y-112752143D02*
X133897715Y-112799762D01*
X133754858Y-112847381D01*
X133659620Y-112847381D01*
X133516762Y-112799762D01*
X133421524Y-112704524D01*
X133373905Y-112609286D01*
X133326286Y-112418810D01*
X133326286Y-112275952D01*
X133373905Y-112085476D01*
X133421524Y-111990238D01*
X133516762Y-111895000D01*
X133659620Y-111847381D01*
X133754858Y-111847381D01*
X133897715Y-111895000D01*
X133945334Y-111942619D01*
X134897715Y-112847381D02*
X134326286Y-112847381D01*
X134612000Y-112847381D02*
X134612000Y-111847381D01*
X134516762Y-111990238D01*
X134421524Y-112085476D01*
X134326286Y-112133095D01*
X139279334Y-117451143D02*
X139231715Y-117498762D01*
X139088858Y-117546381D01*
X138993620Y-117546381D01*
X138850762Y-117498762D01*
X138755524Y-117403524D01*
X138707905Y-117308286D01*
X138660286Y-117117810D01*
X138660286Y-116974952D01*
X138707905Y-116784476D01*
X138755524Y-116689238D01*
X138850762Y-116594000D01*
X138993620Y-116546381D01*
X139088858Y-116546381D01*
X139231715Y-116594000D01*
X139279334Y-116641619D01*
X140136477Y-116879714D02*
X140136477Y-117546381D01*
X139898381Y-116498762D02*
X139660286Y-117213048D01*
X140279334Y-117213048D01*
X132627810Y-110815381D02*
X132627810Y-109815381D01*
X133675429Y-110720143D02*
X133627810Y-110767762D01*
X133484953Y-110815381D01*
X133389715Y-110815381D01*
X133246857Y-110767762D01*
X133151619Y-110672524D01*
X133104000Y-110577286D01*
X133056381Y-110386810D01*
X133056381Y-110243952D01*
X133104000Y-110053476D01*
X133151619Y-109958238D01*
X133246857Y-109863000D01*
X133389715Y-109815381D01*
X133484953Y-109815381D01*
X133627810Y-109863000D01*
X133675429Y-109910619D01*
X134627810Y-110815381D02*
X134056381Y-110815381D01*
X134342095Y-110815381D02*
X134342095Y-109815381D01*
X134246857Y-109958238D01*
X134151619Y-110053476D01*
X134056381Y-110101095D01*
X154201905Y-97099381D02*
X154201905Y-96099381D01*
X154582858Y-96099381D01*
X154678096Y-96147000D01*
X154725715Y-96194619D01*
X154773334Y-96289857D01*
X154773334Y-96432714D01*
X154725715Y-96527952D01*
X154678096Y-96575571D01*
X154582858Y-96623190D01*
X154201905Y-96623190D01*
X155154286Y-96194619D02*
X155201905Y-96147000D01*
X155297143Y-96099381D01*
X155535239Y-96099381D01*
X155630477Y-96147000D01*
X155678096Y-96194619D01*
X155725715Y-96289857D01*
X155725715Y-96385095D01*
X155678096Y-96527952D01*
X155106667Y-97099381D01*
X155725715Y-97099381D01*
X158797810Y-97099381D02*
X158797810Y-96099381D01*
X159845429Y-97004143D02*
X159797810Y-97051762D01*
X159654953Y-97099381D01*
X159559715Y-97099381D01*
X159416857Y-97051762D01*
X159321619Y-96956524D01*
X159274000Y-96861286D01*
X159226381Y-96670810D01*
X159226381Y-96527952D01*
X159274000Y-96337476D01*
X159321619Y-96242238D01*
X159416857Y-96147000D01*
X159559715Y-96099381D01*
X159654953Y-96099381D01*
X159797810Y-96147000D01*
X159845429Y-96194619D01*
X160226381Y-97051762D02*
X160369238Y-97099381D01*
X160607334Y-97099381D01*
X160702572Y-97051762D01*
X160750191Y-97004143D01*
X160797810Y-96908905D01*
X160797810Y-96813667D01*
X160750191Y-96718429D01*
X160702572Y-96670810D01*
X160607334Y-96623190D01*
X160416857Y-96575571D01*
X160321619Y-96527952D01*
X160274000Y-96480333D01*
X160226381Y-96385095D01*
X160226381Y-96289857D01*
X160274000Y-96194619D01*
X160321619Y-96147000D01*
X160416857Y-96099381D01*
X160654953Y-96099381D01*
X160797810Y-96147000D01*
X161226381Y-97099381D02*
X161226381Y-96099381D01*
X161607334Y-96099381D01*
X161702572Y-96147000D01*
X161750191Y-96194619D01*
X161797810Y-96289857D01*
X161797810Y-96432714D01*
X161750191Y-96527952D01*
X161702572Y-96575571D01*
X161607334Y-96623190D01*
X161226381Y-96623190D01*
X146621667Y-97559762D02*
X146764524Y-97607381D01*
X147002620Y-97607381D01*
X147097858Y-97559762D01*
X147145477Y-97512143D01*
X147193096Y-97416905D01*
X147193096Y-97321667D01*
X147145477Y-97226429D01*
X147097858Y-97178810D01*
X147002620Y-97131190D01*
X146812143Y-97083571D01*
X146716905Y-97035952D01*
X146669286Y-96988333D01*
X146621667Y-96893095D01*
X146621667Y-96797857D01*
X146669286Y-96702619D01*
X146716905Y-96655000D01*
X146812143Y-96607381D01*
X147050239Y-96607381D01*
X147193096Y-96655000D01*
X147526429Y-96607381D02*
X147764524Y-97607381D01*
X147955001Y-96893095D01*
X148145477Y-97607381D01*
X148383572Y-96607381D01*
X149288334Y-97607381D02*
X148716905Y-97607381D01*
X149002619Y-97607381D02*
X149002619Y-96607381D01*
X148907381Y-96750238D01*
X148812143Y-96845476D01*
X148716905Y-96893095D01*
X133437334Y-114498381D02*
X133104000Y-114022190D01*
X132865905Y-114498381D02*
X132865905Y-113498381D01*
X133246858Y-113498381D01*
X133342096Y-113546000D01*
X133389715Y-113593619D01*
X133437334Y-113688857D01*
X133437334Y-113831714D01*
X133389715Y-113926952D01*
X133342096Y-113974571D01*
X133246858Y-114022190D01*
X132865905Y-114022190D01*
X134389715Y-114498381D02*
X133818286Y-114498381D01*
X134104000Y-114498381D02*
X134104000Y-113498381D01*
X134008762Y-113641238D01*
X133913524Y-113736476D01*
X133818286Y-113784095D01*
X154900334Y-105989381D02*
X154567000Y-105513190D01*
X154328905Y-105989381D02*
X154328905Y-104989381D01*
X154709858Y-104989381D01*
X154805096Y-105037000D01*
X154852715Y-105084619D01*
X154900334Y-105179857D01*
X154900334Y-105322714D01*
X154852715Y-105417952D01*
X154805096Y-105465571D01*
X154709858Y-105513190D01*
X154328905Y-105513190D01*
X155281286Y-105084619D02*
X155328905Y-105037000D01*
X155424143Y-104989381D01*
X155662239Y-104989381D01*
X155757477Y-105037000D01*
X155805096Y-105084619D01*
X155852715Y-105179857D01*
X155852715Y-105275095D01*
X155805096Y-105417952D01*
X155233667Y-105989381D01*
X155852715Y-105989381D01*
M02*
