G04 #@! TF.FileFunction,Soldermask,Top*
%FSLAX46Y46*%
G04 Gerber Fmt 4.6, Leading zero omitted, Abs format (unit mm)*
G04 Created by KiCad (PCBNEW 4.0.2-4+6225~38~ubuntu14.04.1-stable) date Sun 10 Apr 2016 19:44:50 CEST*
%MOMM*%
G01*
G04 APERTURE LIST*
%ADD10C,0.100000*%
%ADD11R,1.800000X1.800000*%
%ADD12C,1.800000*%
%ADD13R,2.127200X2.127200*%
%ADD14O,2.127200X2.127200*%
%ADD15R,1.700000X1.700000*%
%ADD16C,1.700000*%
%ADD17R,0.950000X2.000000*%
%ADD18R,2.000000X0.950000*%
%ADD19C,1.797000*%
%ADD20C,2.398980*%
%ADD21C,2.127200*%
G04 APERTURE END LIST*
D10*
D11*
X141728000Y-99314000D03*
D12*
X139228000Y-99314000D03*
D11*
X137029000Y-99314000D03*
D12*
X134529000Y-99314000D03*
D11*
X136402000Y-112522000D03*
D12*
X138902000Y-112522000D03*
D13*
X158115000Y-113157000D03*
D14*
X160655000Y-113157000D03*
X158115000Y-110617000D03*
X160655000Y-110617000D03*
X158115000Y-108077000D03*
X160655000Y-108077000D03*
X158115000Y-105537000D03*
X160655000Y-105537000D03*
D15*
X142367000Y-113665000D03*
D16*
X142367000Y-116165000D03*
D17*
X135376000Y-110168000D03*
X136176000Y-110168000D03*
X136976000Y-110168000D03*
X137776000Y-110168000D03*
X138576000Y-110168000D03*
X139376000Y-110168000D03*
X140176000Y-110168000D03*
X140976000Y-110168000D03*
D18*
X142426000Y-108718000D03*
X142426000Y-107918000D03*
X142426000Y-107118000D03*
X142426000Y-106318000D03*
X142426000Y-105518000D03*
X142426000Y-104718000D03*
X142426000Y-103918000D03*
X142426000Y-103118000D03*
D17*
X140976000Y-101668000D03*
X140176000Y-101668000D03*
X139376000Y-101668000D03*
X138576000Y-101668000D03*
X137776000Y-101668000D03*
X136976000Y-101668000D03*
X136176000Y-101668000D03*
X135376000Y-101668000D03*
D18*
X133926000Y-103118000D03*
X133926000Y-103918000D03*
X133926000Y-104718000D03*
X133926000Y-105518000D03*
X133926000Y-106318000D03*
X133926000Y-107118000D03*
X133926000Y-107918000D03*
X133926000Y-108718000D03*
D13*
X155448000Y-101219000D03*
D14*
X155448000Y-98679000D03*
X157988000Y-101219000D03*
X157988000Y-98679000D03*
X160528000Y-101219000D03*
X160528000Y-98679000D03*
D19*
X150322000Y-104810000D03*
X145842000Y-104810000D03*
X150322000Y-98390000D03*
X145842000Y-98390000D03*
D20*
X137414000Y-116078000D03*
X129794000Y-116078000D03*
X152654000Y-105283000D03*
X152654000Y-97663000D03*
D13*
X149374000Y-107188000D03*
D21*
X129374000Y-107188000D03*
M02*
