G04 #@! TF.FileFunction,Legend,Bot*
%FSLAX46Y46*%
G04 Gerber Fmt 4.6, Leading zero omitted, Abs format (unit mm)*
G04 Created by KiCad (PCBNEW 4.0.2-4+6225~38~ubuntu14.04.1-stable) date Sun 10 Apr 2016 19:44:50 CEST*
%MOMM*%
G01*
G04 APERTURE LIST*
%ADD10C,0.100000*%
%ADD11C,0.150000*%
G04 APERTURE END LIST*
D10*
D11*
X156845000Y-111887000D02*
X156845000Y-104267000D01*
X156845000Y-104267000D02*
X161925000Y-104267000D01*
X161925000Y-104267000D02*
X161925000Y-114427000D01*
X161925000Y-114427000D02*
X159385000Y-114427000D01*
X158115000Y-114707000D02*
X156565000Y-114707000D01*
X159385000Y-114427000D02*
X159385000Y-111887000D01*
X159385000Y-111887000D02*
X156845000Y-111887000D01*
X156565000Y-114707000D02*
X156565000Y-113157000D01*
X127924000Y-103488000D02*
X130674000Y-103488000D01*
X130874000Y-111338000D02*
X127924000Y-111338000D01*
X127924000Y-111338000D02*
X127924000Y-103488000D01*
X152374448Y-107188000D02*
G75*
G03X152374448Y-107188000I-11150448J0D01*
G01*
X155551095Y-114244381D02*
X155551095Y-113244381D01*
X155170142Y-113244381D01*
X155074904Y-113292000D01*
X155027285Y-113339619D01*
X154979666Y-113434857D01*
X154979666Y-113577714D01*
X155027285Y-113672952D01*
X155074904Y-113720571D01*
X155170142Y-113768190D01*
X155551095Y-113768190D01*
X154027285Y-114244381D02*
X154598714Y-114244381D01*
X154313000Y-114244381D02*
X154313000Y-113244381D01*
X154408238Y-113387238D01*
X154503476Y-113482476D01*
X154598714Y-113530095D01*
X163647381Y-107172429D02*
X163171190Y-106839095D01*
X163647381Y-106601000D02*
X162647381Y-106601000D01*
X162647381Y-106981953D01*
X162695000Y-107077191D01*
X162742619Y-107124810D01*
X162837857Y-107172429D01*
X162980714Y-107172429D01*
X163075952Y-107124810D01*
X163123571Y-107077191D01*
X163171190Y-106981953D01*
X163171190Y-106601000D01*
X163123571Y-107934334D02*
X163123571Y-107601000D01*
X163647381Y-107601000D02*
X162647381Y-107601000D01*
X162647381Y-108077191D01*
X162742619Y-108410524D02*
X162695000Y-108458143D01*
X162647381Y-108553381D01*
X162647381Y-108791477D01*
X162695000Y-108886715D01*
X162742619Y-108934334D01*
X162837857Y-108981953D01*
X162933095Y-108981953D01*
X163075952Y-108934334D01*
X163647381Y-108362905D01*
X163647381Y-108981953D01*
X162980714Y-109839096D02*
X163647381Y-109839096D01*
X162599762Y-109601000D02*
X163314048Y-109362905D01*
X163314048Y-109981953D01*
X163647381Y-110839096D02*
X163647381Y-110362905D01*
X162647381Y-110362905D01*
X162647381Y-111362905D02*
X162647381Y-111458144D01*
X162695000Y-111553382D01*
X162742619Y-111601001D01*
X162837857Y-111648620D01*
X163028333Y-111696239D01*
X163266429Y-111696239D01*
X163456905Y-111648620D01*
X163552143Y-111601001D01*
X163599762Y-111553382D01*
X163647381Y-111458144D01*
X163647381Y-111362905D01*
X163599762Y-111267667D01*
X163552143Y-111220048D01*
X163456905Y-111172429D01*
X163266429Y-111124810D01*
X163028333Y-111124810D01*
X162837857Y-111172429D01*
X162742619Y-111220048D01*
X162695000Y-111267667D01*
X162647381Y-111362905D01*
X163647381Y-112648620D02*
X163647381Y-112077191D01*
X163647381Y-112362905D02*
X162647381Y-112362905D01*
X162790238Y-112267667D01*
X162885476Y-112172429D01*
X162933095Y-112077191D01*
X142009714Y-109656571D02*
X141866857Y-109704190D01*
X141819238Y-109751810D01*
X141771619Y-109847048D01*
X141771619Y-109989905D01*
X141819238Y-110085143D01*
X141866857Y-110132762D01*
X141962095Y-110180381D01*
X142343048Y-110180381D01*
X142343048Y-109180381D01*
X142009714Y-109180381D01*
X141914476Y-109228000D01*
X141866857Y-109275619D01*
X141819238Y-109370857D01*
X141819238Y-109466095D01*
X141866857Y-109561333D01*
X141914476Y-109608952D01*
X142009714Y-109656571D01*
X142343048Y-109656571D01*
X141485905Y-109180381D02*
X140914476Y-109180381D01*
X141200191Y-110180381D02*
X141200191Y-109180381D01*
X140057333Y-110180381D02*
X140628762Y-110180381D01*
X140343048Y-110180381D02*
X140343048Y-109180381D01*
X140438286Y-109323238D01*
X140533524Y-109418476D01*
X140628762Y-109466095D01*
X129654952Y-108909429D02*
X128893047Y-108909429D01*
X129273999Y-109290381D02*
X129273999Y-108528476D01*
X149904952Y-109159429D02*
X149143047Y-109159429D01*
M02*
