M48
;DRILL file {KiCad 4.0.2-4+6225~38~ubuntu14.04.1-stable} date Sun 10 Apr 2016 19:44:47 CEST
;FORMAT={3:3/ absolute / metric / suppress leading zeros}
FMAT,2
METRIC,TZ
T1C0.400
T2C0.800
T3C0.813
T4C0.900
T5C1.001
T6C1.016
%
G90
G05
M71
T1
X130683Y-103378
X136976Y-105988
X137795Y-108458
X139319Y-108458
X143510Y-98044
X143510Y-101600
X143891Y-103124
X143891Y-104775
X144653Y-104013
X146177Y-110490
X146685Y-103632
X147574Y-115189
X149733Y-114300
X150368Y-100965
X150749Y-97155
X151384Y-103124
X152146Y-109093
X152146Y-110490
X154305Y-113411
X155956Y-104140
X163322Y-103505
T2
X142367Y-113665
X142367Y-116165
T3
X145842Y-98390
X145842Y-104810
X150322Y-98390
X150322Y-104810
T4
X134529Y-99314
X136402Y-112522
X137029Y-99314
X138902Y-112522
X139228Y-99314
X141728Y-99314
T5
X129794Y-116078
X137414Y-116078
X152654Y-97663
X152654Y-105283
T6
X129374Y-107188
X149374Y-107188
X155448Y-98679
X155448Y-101219
X157988Y-98679
X157988Y-101219
X158115Y-105537
X158115Y-108077
X158115Y-110617
X158115Y-113157
X160528Y-98679
X160528Y-101219
X160655Y-105537
X160655Y-108077
X160655Y-110617
X160655Y-113157
T0
M30
